<?xml version="1.0" encoding="UTF-8"?>
<!-- Generator: visioncortex VTracer 0.6.5 -->
<svg version="1.1" xmlns="http://www.w3.org/2000/svg" width="640" height="640">
<path d="M0 0 C211.2 0 422.4 0 640 0 C640 211.2 640 422.4 640 640 C428.8 640 217.6 640 0 640 C0 428.8 0 217.6 0 0 Z " fill="#FEFEFE" transform="translate(0,0)"/>
<path d="M0 0 C12.94 7.005 21.34 27.193 24.508 40.719 C25.42 46.801 25.226 52.864 25 59 C26.154 58.711 27.307 58.423 28.496 58.125 C65.202 49.528 101.617 57.219 132.062 79.25 C162.483 102.924 182.768 136.63 188 175 C188.043 177 188.058 179.001 188 181 C188.883 180.965 189.766 180.93 190.676 180.895 C209.471 180.471 209.471 180.471 215 186 C214.721 190.059 213.428 192.025 210.625 194.875 C203.96 202.127 202.824 209.665 202.875 219.312 C202.871 220.034 202.867 220.755 202.863 221.498 C202.871 225.691 203.195 229.701 203.764 233.863 C208.369 275.6 192.506 314.322 164.062 344.375 C138.362 369.501 105.303 383.141 69.549 383.24 C67.466 383.25 65.385 383.281 63.303 383.312 C50.479 383.415 38.4 381.394 26.375 376.75 C25.575 376.446 24.775 376.143 23.951 375.83 C12.443 371.348 -1.278 365.163 -9.322 355.395 C-11.675 353.439 -13.282 353.646 -16.312 353.664 C-17.379 353.655 -18.445 353.646 -19.544 353.636 C-20.684 353.633 -21.825 353.629 -23 353.625 C-50.65 353.019 -74.825 342.501 -93.309 321.359 C-104.311 307.402 -110.696 292.133 -115 275 C-115.178 274.332 -115.356 273.664 -115.539 272.976 C-120.317 254.666 -119.382 234.296 -115 216 C-114.85 215.355 -114.7 214.711 -114.546 214.046 C-111.017 199.035 -105.045 185.618 -98 172 C-98.626 171.879 -99.253 171.758 -99.898 171.633 C-100.716 171.465 -101.533 171.298 -102.375 171.125 C-102.781 171.044 -102.781 171.044 -104.836 170.633 C-107 170 -107 170 -109 168 C-108.917 167.031 -108.835 166.061 -108.75 165.062 C-108.791 164.557 -108.791 164.557 -109 162 C-111.75 160.375 -111.75 160.375 -115 159 C-117.438 157.188 -117.438 157.188 -119 155 C-119 150.287 -116.911 146.418 -114.988 142.215 C-112.179 135.919 -110.147 128.806 -112 122 C-114.436 119.226 -117.108 117.049 -119.973 114.723 C-134.058 102.785 -138.966 82.831 -139.5 65.25 C-139.543 64.446 -139.586 63.641 -139.63 62.812 C-139.689 57.528 -138.691 54.109 -134.931 50.286 C-131.222 47.815 -127.449 48.057 -123.125 48.25 C-122.663 48.261 -122.663 48.261 -120.323 48.315 C-109.047 48.802 -98.776 52.169 -88.797 57.398 C-86.448 58.185 -85.295 57.888 -83 57 C-81.422 55.871 -81.422 55.871 -79.75 54.438 C-66.956 44.537 -52.135 39.24 -36 40 C-35.954 39.58 -35.954 39.58 -35.723 37.453 C-34.895 33.498 -33.358 30.262 -31.438 26.75 C-31.081 26.093 -30.725 25.436 -30.357 24.76 C-24.731 14.664 -13.458 -2.977 0 0 Z " fill="#105083" transform="translate(282,126)"/>
<path d="M0 0 C4.759 0.456 9.397 1.245 14.085 2.156 C31.319 5.392 47.141 4.467 64.141 0.367 C66 0 66 0 69 0 C66.878 4.42 64.372 8.625 61.922 12.867 C59.056 17.85 59.056 17.85 58.062 20.5 C57.712 20.995 57.361 21.49 57 22 C52.516 22.008 49.645 19.562 46.188 16.938 C45.212 16.204 44.236 15.471 43.23 14.715 C42.494 14.149 41.758 13.583 41 13 C41.196 13.526 41.196 13.526 42.188 16.188 C42.298 16.483 42.298 16.483 42.855 17.98 C46.558 24.514 52.889 27.34 59.293 30.605 C63.44 32.815 66.129 34.467 68 39 C68 43.281 67.721 45.239 64.75 48.375 C56.763 53.095 47.898 51.19 39.523 48.477 C34.303 46.289 29.749 43.314 25.094 40.121 C22.445 38.305 19.772 36.619 17 35 C22.315 45.63 31.236 50.654 42 55 C43.931 55.246 45.87 55.442 47.812 55.562 C50.199 55.871 50.199 55.871 52 57 C53.21 61.689 53.214 66.183 53 71 C52.113 70.835 51.226 70.67 50.312 70.5 C38.214 68.828 28.466 69.566 18.766 77.262 C14.045 81.909 12.778 86.495 13 93 C13.206 92.674 13.206 92.674 14.25 91.023 C19.472 83.121 25.623 75.975 35.543 74.664 C45.729 74.514 53.434 77.42 60.887 84.449 C68.644 93.812 71.178 103.92 71.062 115.812 C71.058 116.696 71.053 117.58 71.049 118.49 C71.037 120.66 71.019 122.83 71 125 C71.99 125 72.98 125 74 125 C74.66 120.71 75.32 116.42 76 112 C76.66 112 77.32 112 78 112 C78 112.66 78 113.32 78 114 C79.315 114.703 80.652 115.364 82 116 C83.1 116.855 84.182 117.732 85.25 118.625 C103.556 132.456 126.551 137.49 149 132.812 C181.366 123.914 195.332 101.482 208.717 72.737 C221.587 45.277 236.526 22.315 267.375 14.062 C275.739 12.369 286.759 11.346 295 14 C293.588 17.766 291.868 21.286 290 24.84 C287.181 30.93 286.713 36.017 286.812 42.625 C286.819 43.521 286.825 44.417 286.832 45.34 C286.885 49.917 287.049 54.442 287.5 59 C291.09 95.781 291.09 95.781 282.555 105.578 C277.484 110.216 272.184 115 265 115 C264.67 110.71 264.34 106.42 264 102 C263.04 104.062 262.082 106.124 261.125 108.188 C260.591 109.336 260.058 110.485 259.508 111.668 C258 115 258 115 256.93 117.926 C256.623 118.61 256.316 119.295 256 120 C255.34 120 254.68 120 254 120 C253.308 121.656 252.647 123.325 252 125 C243.288 138.939 231.547 150.008 218.531 159.837 C217.25 160.81 215.996 161.819 214.75 162.836 C213 164 213 164 210 164 C210 164.66 210 165.32 210 166 C207.033 167.936 203.759 169.357 200.562 170.875 C199.614 171.326 198.666 171.777 197.689 172.242 C173.753 183.244 144.108 184.706 119 177 C118.298 176.796 117.595 176.593 116.872 176.383 C100.557 171.579 86.755 163.149 74 152 C73.174 151.37 72.347 150.739 71.496 150.09 C68.717 147.763 66.578 145.264 64.312 142.438 C63.546 141.487 62.779 140.537 61.988 139.559 C60 137 60 137 58 134 C58.165 136.805 58.165 136.805 59 151 C35.271 152.079 17.198 142.921 0.77 125.957 C-4.73 119.874 -8.908 113.082 -13 106 C-12.67 108.31 -12.34 110.62 -12 113 C-14.721 110.279 -15.139 107.259 -16 103.625 C-16.174 102.897 -16.347 102.169 -16.526 101.418 C-17.028 99.281 -17.514 97.141 -18 95 C-18.232 94.037 -18.464 93.074 -18.703 92.082 C-25.211 60.61 -15.598 28.645 -1 1 C-0.67 0.67 -0.34 0.34 0 0 Z " fill="#0191F7" transform="translate(191,301)"/>
<path d="M0 0 C8.078 2.631 13.645 14.309 16.734 21.664 C17.739 24.371 18.678 27.073 19.543 29.828 C19.908 30.807 20.273 31.785 20.648 32.793 C21.65 36.321 21.65 39.664 21.641 43.32 C21.639 44.52 21.637 45.721 21.635 46.957 C21.615 49.447 21.569 51.937 21.494 54.426 C21.543 62.649 22.897 66.684 29.215 72.076 C34.554 76.095 34.554 76.095 37.23 77.703 C38.147 78.265 39.064 78.827 40.008 79.406 C42.081 80.569 44.106 81.54 46.293 82.453 C47.035 82.907 47.778 83.361 48.543 83.828 C48.333 88.305 46.294 90.791 43.48 94.141 C42.747 95.024 42.014 95.907 41.258 96.816 C40.692 97.48 40.126 98.144 39.543 98.828 C42.183 99.158 44.823 99.488 47.543 99.828 C45.959 109.971 39.086 118.273 32.543 125.828 C31.73 126.787 30.916 127.746 30.078 128.734 C16.112 144.847 -2.579 157.65 -23.457 162.828 C-24.031 162.976 -24.031 162.976 -26.934 163.723 C-48.997 168.643 -74.694 167.167 -95.457 157.828 C-93.959 154.716 -92.258 151.775 -90.457 148.828 C-91.265 148.863 -92.074 148.898 -92.906 148.934 C-93.975 148.961 -95.044 148.988 -96.145 149.016 C-97.2 149.05 -98.256 149.085 -99.344 149.121 C-103.013 148.776 -104.889 148.541 -107.457 145.828 C-107.155 142.658 -105.927 139.837 -104.77 136.891 C-98.855 120.225 -98.855 120.225 -102.668 112.316 C-104.729 109.45 -107.041 107.274 -109.645 104.891 C-122.548 92.522 -128.668 76.114 -128.582 58.453 C-128.586 57.635 -128.59 56.816 -128.594 55.973 C-128.584 49.955 -128.584 49.955 -127.457 48.828 C-112.609 47.078 -98.516 49.204 -85.73 57.094 C-82.457 58.828 -82.457 58.828 -80.199 58.738 C-78.457 57.828 -78.457 57.828 -75.582 55.266 C-64.489 45.408 -48.745 38.036 -33.832 39.391 C-30.348 39.402 -30.348 39.402 -27.457 38.828 C-25.815 36.583 -25.577 34.677 -25.098 31.945 C-22.901 21.255 -16.133 12.266 -8.457 4.828 C-7.886 4.248 -7.315 3.668 -6.727 3.07 C-4.454 0.932 -3.194 -0.223 0 0 Z " fill="#0A93F4" transform="translate(278.45703125,133.171875)"/>
<path d="M0 0 C23.157 22.507 39.005 53.771 40.367 86.301 C38.759 87.909 36.772 87.734 34.555 88.051 C15.246 91.452 -2.474 104.107 -13.242 120.281 C-13.701 120.948 -14.16 121.614 -14.633 122.301 C-14.963 122.301 -15.293 122.301 -15.633 122.301 C-15.999 120.946 -16.3 119.574 -16.578 118.199 C-19.978 102.189 -24.718 89.841 -35.633 77.301 C-36.467 76.218 -37.3 75.135 -38.133 74.051 C-43.017 68.678 -48.933 63.677 -56.32 62.926 C-57.413 62.72 -58.507 62.513 -59.633 62.301 C-62.617 55.129 -61.464 45.105 -57.969 38.363 C-52.186 29.436 -45.318 23.073 -34.633 21.301 C-28.969 20.968 -23.3 21.123 -17.633 21.301 C-25.734 16.612 -33.881 15.634 -42.922 18.254 C-54.1 22.636 -61.513 29.516 -65.508 41.051 C-67.289 47.748 -67.617 55.32 -65.949 62.066 C-65.897 62.435 -65.897 62.435 -65.633 64.301 C-67.583 65.706 -69.592 67.03 -71.633 68.301 C-75.826 72.825 -76.075 76.618 -76.066 82.52 C-75.06 88.976 -71.456 92.769 -66.82 97.051 C-55.409 108.079 -50.913 119.643 -51.285 135.586 C-52.18 145.143 -55.89 152.745 -61.633 160.301 C-62.355 161.332 -63.077 162.363 -63.82 163.426 C-72.843 173.909 -86.274 177.568 -99.473 177.547 C-114.509 177.298 -126.134 169.683 -135.633 158.301 C-143.676 146.352 -146.237 132.64 -142.441 118.504 C-138.61 108.066 -131.887 100.098 -123.758 92.676 C-121.353 89.988 -120.403 87.658 -119.309 84.266 C-118.587 82.167 -117.64 80.276 -116.633 78.301 C-116.608 79.567 -116.583 80.833 -116.557 82.137 C-116.462 86.854 -116.362 91.571 -116.26 96.288 C-116.217 98.326 -116.176 100.363 -116.135 102.401 C-116.077 105.338 -116.014 108.274 -115.949 111.211 C-115.933 112.115 -115.916 113.02 -115.899 113.952 C-115.786 118.821 -115.437 123.496 -114.633 128.301 C-113.973 128.301 -113.313 128.301 -112.633 128.301 C-111.87 129.25 -111.107 130.198 -110.32 131.176 C-106.874 135.412 -103.699 136.381 -98.32 136.676 C-92.105 136.52 -87.514 134.281 -83.258 129.801 C-80.11 124.959 -79.377 121.982 -79.342 116.089 C-79.336 115.37 -79.329 114.65 -79.322 113.909 C-79.303 111.535 -79.299 109.16 -79.297 106.785 C-79.29 105.129 -79.284 103.472 -79.277 101.815 C-79.265 98.342 -79.261 94.868 -79.262 91.395 C-79.262 86.959 -79.235 82.523 -79.201 78.087 C-79.178 74.664 -79.174 71.241 -79.175 67.818 C-79.173 66.183 -79.164 64.549 -79.149 62.914 C-78.993 44.82 -78.993 44.82 -85.746 38.242 C-90.466 35.283 -94.028 33.539 -99.633 33.301 C-98.257 29.653 -96.607 26.322 -94.695 22.926 C-91.55 17.218 -88.621 11.825 -87.633 5.301 C-88.953 5.301 -90.273 5.301 -91.633 5.301 C-90.758 0.551 -90.758 0.551 -89.633 -1.699 C-89.164 -5.102 -89.164 -5.102 -89.633 -8.699 C-91.924 -10.35 -93.574 -11.248 -96.133 -12.262 C-97.425 -12.838 -98.714 -13.42 -100 -14.008 C-100.626 -14.29 -101.252 -14.572 -101.897 -14.863 C-107.351 -17.491 -112.426 -21.54 -115.633 -26.699 C-115.303 -27.689 -114.973 -28.679 -114.633 -29.699 C-73.876 -42.945 -30.401 -28.119 0 0 Z " fill="#0D94F3" transform="translate(422.6328125,221.69921875)"/>
<path d="M0 0 C3.658 2.04 5.669 3.504 8 7 C8.65 12.746 7.68 15.583 4 20 C2.744 21.101 1.472 22.183 0.188 23.25 C-11.467 33.171 -16.45 46.022 -16.562 61 C-16.329 78.438 -10.559 92.588 3 104 C17.267 114.217 33.047 117.458 50.285 113.812 C65.409 109.286 77.918 98.948 84.57 84.617 C90.804 68.98 91.06 52.595 83.375 37.375 C80.002 31.555 75.686 26.79 71 22 C70.455 21.439 69.909 20.879 69.348 20.301 C68.246 19.186 67.126 18.09 66 17 C63.919 14.919 64.5 11.359 64.523 8.59 C65.227 4.769 66.966 3.196 70.066 1 C73.001 -0.518 74.768 -0.688 78 0 C80.875 1.562 80.875 1.562 84 4 C84.607 4.463 85.214 4.926 85.84 5.402 C101.948 18.449 110.568 38.714 111.48 59.125 C111.378 67.537 108.72 73.726 104.938 81.125 C104.376 82.284 103.815 83.443 103.236 84.637 C101.536 88.116 99.782 91.562 98 95 C97.696 95.587 97.392 96.174 97.08 96.778 C86.233 117.637 71.224 131.661 47.984 137.305 C27.515 141.271 6.489 134.859 -10 122.5 C-11.35 121.353 -12.684 120.187 -14 119 C-14.706 118.408 -15.413 117.817 -16.141 117.207 C-21.166 112.694 -23.334 108.35 -25.652 102.062 C-27.088 98.799 -28.827 96.454 -31.062 93.688 C-36.559 86.54 -40.217 76.091 -39 67 C-37.172 65.68 -37.172 65.68 -34.75 64.875 C-30.996 63.453 -28.521 62.256 -26 59 C-24.123 53.37 -24.063 47.91 -26.688 42.562 C-29 40 -29 40 -31.812 38.438 C-32.534 37.963 -33.256 37.489 -34 37 C-32.804 22.595 -18.646 9.381 -8 1 C-5.134 -0.433 -3.187 -0.306 0 0 Z " fill="#FAFBFB" transform="translate(289,291)"/>
<path d="M0 0 C0.33 0 0.66 0 1 0 C1 5.28 1 10.56 1 16 C6.336 13.77 10.567 11.761 15 8 C15.66 8 16.32 8 17 8 C18.125 6 18.125 6 19 4 C20.803 8.178 19.034 11.801 17.562 15.812 C17.291 16.563 17.019 17.313 16.74 18.087 C13.854 25.793 10.178 32.924 6 40 C5.709 40.501 5.709 40.501 4.238 43.039 C-11.855 68.942 -38.635 87.619 -67.188 97.375 C-67.875 97.614 -68.562 97.852 -69.27 98.098 C-80.703 101.801 -92.377 102.364 -104.312 102.312 C-104.994 102.31 -105.675 102.308 -106.376 102.306 C-138.202 102.144 -168.612 89.902 -189.391 65.078 C-191.585 62.244 -193.722 59.373 -195.773 56.434 C-197 55 -197 55 -199 55 C-197.647 59.796 -195.533 63.782 -193.023 68.047 C-192 70 -192 70 -192 72 C-217.994 73.38 -240.854 64.096 -258.812 45.188 C-268.796 33.485 -277.937 18.721 -278 3 C-276 6 -276 6 -274.477 8.898 C-263.259 29.961 -245.557 45.029 -222.004 50.254 C-216.383 51.38 -210.723 51.804 -205 52 C-205.072 51.56 -205.072 51.56 -205.438 49.332 C-205.623 48.171 -205.809 47.009 -206 45.812 C-206.093 45.238 -206.093 45.238 -206.562 42.332 C-206.935 39.496 -207.086 36.853 -207 34 C-203.796 37.004 -201.178 40.093 -198.562 43.625 C-190.274 54.094 -178.492 61.478 -167 68 C-166.586 68.235 -166.586 68.235 -164.492 69.426 C-157.351 73.232 -149.749 75.751 -142 78 C-140.895 78.324 -139.791 78.647 -138.652 78.98 C-112.886 85.281 -85.062 81.199 -61.559 69.642 C-56.181 67 -56.181 67 -54 67 C-54 66.34 -54 65.68 -54 65 C-52.356 64.045 -50.707 63.097 -49.037 62.187 C-34.255 53.572 -21.442 39.929 -12.764 25.317 C-11.888 23.85 -10.95 22.42 -10 21 C-9.34 21 -8.68 21 -8 21 C-7.651 19.337 -7.322 17.669 -7 16 C-6.05 13.77 -5.046 11.562 -4 9.375 C-1.08 3.241 -1.08 3.241 0 0 Z " fill="#0A76C8" transform="translate(455,400)"/>
<path d="M0 0 C1 3 1 3 -0.109 4.902 C-0.651 5.574 -1.192 6.246 -1.75 6.938 C-2.281 7.607 -2.812 8.276 -3.359 8.965 C-3.63 9.301 -3.63 9.301 -5 11 C-6.005 12.33 -7.006 13.662 -8 15 C-5.36 15.33 -2.72 15.66 0 16 C-1.584 26.143 -8.457 34.445 -15 42 C-15.813 42.959 -16.627 43.918 -17.465 44.906 C-31.431 61.019 -50.122 73.821 -71 79 C-71.574 79.148 -71.574 79.148 -74.477 79.895 C-96.54 84.815 -122.237 83.338 -143 74 C-141.502 70.888 -139.801 67.947 -138 65 C-138.404 65.017 -138.404 65.017 -140.449 65.105 C-141.518 65.133 -142.586 65.16 -143.688 65.188 C-144.215 65.205 -144.215 65.205 -146.887 65.293 C-150.366 64.966 -152.208 64.056 -155 62 C-155 61.67 -155 61.34 -155 61 C-153.886 60.773 -152.773 60.546 -151.625 60.312 C-144.201 58.535 -138.191 53.89 -132.125 49.438 C-120.163 40.936 -107.662 38.64 -93.312 38.625 C-92.103 38.601 -90.893 38.576 -89.646 38.551 C-88.481 38.547 -87.315 38.543 -86.113 38.539 C-85.059 38.531 -84.005 38.523 -82.919 38.514 C-79.303 39.116 -77.744 40.64 -75 43 C-73.742 43.289 -72.484 43.577 -71.188 43.875 C-70.136 44.246 -69.084 44.618 -68 45 C-67.312 47.938 -67.312 47.938 -68 51 C-70.332 53.798 -71.803 53.982 -75.438 54.312 C-78.748 54.022 -81.034 53.438 -84 52 C-82.25 56.875 -82.25 56.875 -80 58 C-78.378 58.121 -76.751 58.175 -75.125 58.188 C-74.261 58.202 -73.398 58.216 -72.508 58.23 C-69.808 57.982 -68.254 57.491 -66 56 C-64.25 52.875 -64.25 52.875 -63 50 C-62.505 50.165 -62.505 50.165 -60 51 C-54.996 51.371 -52.017 51.099 -48 48 C-46.066 45.099 -45.699 44.103 -45.375 40.812 C-45.313 40.183 -45.313 40.183 -45 37 C-48 38.5 -48.556 41.052 -50 44 C-52.339 46.339 -52.834 46.273 -56 46.25 C-56.701 46.255 -57.403 46.26 -58.125 46.266 C-60 46 -60 46 -62 44 C-61.735 41.437 -60.926 39.881 -59.562 37.688 C-58 35 -58 35 -57.438 31.812 C-54.68 21.585 -41.777 14.409 -33 10 C-28.735 8.322 -24.444 7.106 -20 6 C-19.319 5.83 -18.637 5.66 -17.936 5.485 C-11.897 3.982 -11.897 3.982 -9.38 3.394 C-6.02 2.593 -3.003 1.727 0 0 Z " fill="#FAFCFC" transform="translate(326,217)"/>
<path d="M0 0 C-1.412 3.766 -3.132 7.286 -5 10.84 C-7.819 16.93 -8.287 22.017 -8.188 28.625 C-8.181 29.521 -8.175 30.417 -8.168 31.34 C-8.115 35.917 -7.951 40.442 -7.5 45 C-3.91 81.781 -3.91 81.781 -12.445 91.578 C-17.516 96.216 -22.816 101 -30 101 C-30.019 100.498 -30.019 100.498 -30.113 97.957 C-30.521 88.964 -31.627 80.717 -34 72 C-34.718 72.731 -35.436 73.462 -36.176 74.215 C-52.182 90 -52.182 90 -63 90 C-62.858 88.416 -62.711 86.833 -62.562 85.25 C-62.481 84.368 -62.4 83.487 -62.316 82.578 C-62 80 -62 80 -61.473 78 C-59.885 71.283 -60.982 63.746 -62 57 C-62.736 57.482 -63.472 57.964 -64.23 58.461 C-65.206 59.093 -66.182 59.724 -67.188 60.375 C-68.15 61.001 -69.113 61.628 -70.105 62.273 C-75.315 65.381 -78.906 66.239 -85 66 C-86.615 56.666 -82.46 49.804 -78.073 41.929 C-77.11 40.197 -76.183 38.446 -75.262 36.691 C-64.705 17.317 -46.096 3.803 -24.48 -0.574 C-16.801 -1.514 -7.443 -2.397 0 0 Z " fill="#FBFCFD" transform="translate(486,315)"/>
<path d="M0 0 C0.33 0 0.66 0 1 0 C1.396 1.829 1.766 3.663 2.125 5.5 C3.911 12.877 7.404 16.622 12.801 21.691 C23.783 32.187 27.699 44.248 27.348 59.285 C26.453 68.843 22.743 76.444 17 84 C16.278 85.031 15.556 86.062 14.812 87.125 C5.79 97.608 -7.642 101.268 -20.84 101.247 C-35.876 100.997 -47.501 93.382 -57 82 C-65.043 70.052 -67.604 56.339 -63.809 42.203 C-59.978 31.765 -53.254 23.797 -45.125 16.375 C-42.72 13.688 -41.771 11.357 -40.676 7.965 C-39.954 5.866 -39.008 3.975 -38 2 C-37.975 3.266 -37.95 4.532 -37.924 5.836 C-37.83 10.553 -37.729 15.27 -37.628 19.987 C-37.584 22.025 -37.543 24.063 -37.503 26.1 C-37.445 29.037 -37.381 31.974 -37.316 34.91 C-37.3 35.815 -37.283 36.719 -37.266 37.651 C-37.153 42.52 -36.804 47.195 -36 52 C-35.34 52 -34.68 52 -34 52 C-33.237 52.949 -32.474 53.897 -31.688 54.875 C-28.241 59.111 -25.066 60.08 -19.688 60.375 C-13.472 60.22 -8.881 57.98 -4.625 53.5 C-2.094 49.605 -0.757 46.927 -0.681 42.231 C-0.661 41.291 -0.641 40.35 -0.621 39.381 C-0.609 38.373 -0.598 37.366 -0.586 36.328 C-0.567 35.291 -0.547 34.253 -0.527 33.184 C-0.468 29.873 -0.421 26.561 -0.375 23.25 C-0.337 21.004 -0.298 18.758 -0.258 16.512 C-0.162 11.008 -0.077 5.504 0 0 Z " fill="#0190F6" transform="translate(344,298)"/>
<path d="M0 0 C3.025 1.736 5.418 3.836 7 7 C7.108 9.281 7.149 11.565 7.161 13.849 C7.166 14.553 7.171 15.257 7.176 15.983 C7.191 18.318 7.198 20.653 7.203 22.988 C7.209 24.61 7.215 26.232 7.22 27.854 C7.231 31.258 7.237 34.661 7.24 38.065 C7.246 42.423 7.27 46.781 7.298 51.139 C7.317 54.491 7.322 57.842 7.324 61.194 C7.327 62.801 7.335 64.407 7.348 66.013 C7.365 68.263 7.363 70.513 7.356 72.763 C7.36 74.043 7.364 75.322 7.367 76.641 C6.885 81.05 5.288 83.563 2.375 86.812 C-1.358 88.679 -4.921 88.792 -9 88 C-13.23 84.739 -14.887 82.276 -15.154 76.908 C-15.167 75.636 -15.18 74.364 -15.193 73.053 C-15.201 72.351 -15.209 71.648 -15.218 70.924 C-15.242 68.599 -15.259 66.274 -15.273 63.949 C-15.279 63.154 -15.284 62.359 -15.29 61.54 C-15.316 57.331 -15.336 53.123 -15.35 48.914 C-15.363 45.435 -15.391 41.956 -15.432 38.477 C-15.481 34.272 -15.506 30.067 -15.513 25.862 C-15.52 24.262 -15.535 22.662 -15.559 21.062 C-15.591 18.819 -15.591 16.578 -15.583 14.335 C-15.588 13.697 -15.588 13.697 -15.608 10.473 C-14.805 5.886 -13.255 4.274 -10 1 C-6.771 -0.614 -3.49 -0.596 0 0 Z " fill="#FAFBFC" transform="translate(329,263)"/>
<path d="M0 0 C2.357 3.535 3.373 7.081 4.5 11.125 C4.72 11.914 4.94 12.703 5.167 13.515 C7.305 21.551 8.572 29.694 9 38 C7.392 39.608 5.405 39.433 3.188 39.75 C-16.122 43.152 -33.842 55.806 -44.609 71.98 C-45.068 72.647 -45.527 73.313 -46 74 C-46.33 74 -46.66 74 -47 74 C-47.366 72.646 -47.668 71.274 -47.945 69.898 C-51.345 53.888 -56.085 41.541 -67 29 C-67.834 27.917 -68.667 26.834 -69.5 25.75 C-75.635 19.002 -81.921 15.048 -91 14 C-90.34 13.979 -89.68 13.959 -89 13.938 C-88.34 13.628 -87.68 13.319 -87 13 C-86.75 9.438 -86.75 9.438 -87 6 C-73.731 10.904 -63.445 20.924 -55.293 32.25 C-51.199 37.791 -46.674 41.472 -39.738 42.469 C-25.794 42.596 -17.2 37.611 -7.812 27.688 C-1.539 18.385 -0.162 11.067 0 0 Z " fill="#1078C6" transform="translate(454,270)"/>
<path d="M0 0 C0.66 0.33 1.32 0.66 2 1 C1.856 1.281 1.856 1.281 1.125 2.703 C-4.131 14.603 -2.465 28.115 -1.23 40.762 C1.259 75.735 1.259 75.735 -6.445 84.578 C-11.516 89.216 -16.816 94 -24 94 C-24.33 88.06 -24.66 82.12 -25 76 C-24.34 76 -23.68 76 -23 76 C-22.473 74.34 -22.473 74.34 -22.062 71.938 C-21.299 67.669 -20.46 63.43 -19.562 59.188 C-18.48 53.843 -17.636 48.52 -16.924 43.114 C-14.863 27.508 -11.572 11.572 0 0 Z " fill="#C6D6DE" transform="translate(480,322)"/>
<path d="M0 0 C0.479 2.116 0.906 4.244 1.312 6.375 C5.634 26.795 17.352 42.131 35.649 52.298 C47.493 58.577 57.914 61.181 71.188 61.25 C72.165 61.271 73.143 61.291 74.15 61.312 C84.314 61.366 93.135 58.907 102.125 54.25 C102.807 53.902 103.49 53.554 104.193 53.196 C112.836 48.671 119.595 42.782 126.188 35.625 C126.786 35.089 127.384 34.553 128 34 C128.66 34.33 129.32 34.66 130 35 C119.785 52.277 107.334 63.946 88 70 C87.268 70.245 86.536 70.49 85.781 70.742 C65.642 76.397 44.112 69.293 27.277 58.207 C25.081 56.561 23.037 54.838 21 53 C20.294 52.408 19.587 51.817 18.859 51.207 C13.834 46.694 11.666 42.35 9.348 36.062 C7.912 32.799 6.173 30.454 3.938 27.688 C-1.66 20.407 -4.995 10.249 -4 1 C-1 0 -1 0 0 0 Z " fill="#C6D6DD" transform="translate(254,357)"/>
<path d="M0 0 C11.072 10.761 19.238 22.818 26.492 36.363 C26.99 37.28 27.488 38.197 28.001 39.142 C28.455 40.01 28.908 40.879 29.375 41.773 C29.784 42.55 30.193 43.326 30.614 44.125 C31.484 46.637 31.263 47.838 30.367 50.301 C29.882 49.273 29.398 48.246 28.898 47.188 C24.767 38.587 20.371 30.775 14.367 23.301 C13.854 22.647 13.341 21.994 12.812 21.32 C9.109 16.787 4.83 13.068 0.367 9.301 C-1.032 8.096 -2.428 6.888 -3.82 5.676 C-4.15 5.389 -4.15 5.389 -5.82 3.938 C-7.386 2.524 -8.863 1.013 -10.32 -0.512 C-12.772 -2.831 -14.531 -3.481 -17.633 -4.699 C-19.256 -5.626 -20.86 -6.585 -22.445 -7.574 C-32.244 -13.517 -42.427 -17.849 -53.566 -20.723 C-54.578 -21.045 -55.59 -21.367 -56.633 -21.699 C-56.633 -22.359 -56.633 -23.019 -56.633 -23.699 C-64.391 -24.791 -72.098 -24.885 -79.917 -24.885 C-82.128 -24.887 -84.339 -24.905 -86.551 -24.924 C-93.849 -24.952 -100.539 -24.598 -107.633 -22.699 C-110.706 -22.9 -112.047 -23.27 -114.508 -25.074 C-114.879 -25.61 -115.25 -26.147 -115.633 -26.699 C-115.303 -27.689 -114.973 -28.679 -114.633 -29.699 C-73.876 -42.945 -30.401 -28.119 0 0 Z " fill="#79BDE5" transform="translate(422.6328125,221.69921875)"/>
<path d="M0 0 C0.99 0 1.98 0 3 0 C1.416 10.143 -5.457 18.445 -12 26 C-12.813 26.959 -13.627 27.918 -14.465 28.906 C-28.431 45.019 -47.122 57.821 -68 63 C-68.574 63.148 -68.574 63.148 -71.477 63.895 C-93.54 68.815 -119.237 67.338 -140 58 C-138.25 54.125 -138.25 54.125 -136 53 C-134.328 53.451 -132.658 53.91 -131.003 54.417 C-99.492 63.589 -66.346 57.796 -38.703 40.848 C-33.867 37.542 -29.433 33.821 -25 30 C-24.314 29.46 -23.628 28.92 -22.922 28.363 C-14.05 21.204 -7.023 11.209 -1.219 1.477 C-0.817 0.989 -0.414 0.502 0 0 Z " fill="#C5D5DD" transform="translate(323,233)"/>
<path d="M0 0 C0.33 0 0.66 0 1 0 C3.165 16.222 -8.161 32.607 -17.875 44.812 C-26.476 54.115 -36.52 60.019 -48 65 C-49.036 65.458 -50.073 65.915 -51.141 66.387 C-70.274 73.524 -92.448 69.106 -109.941 59.793 C-113.901 57.472 -117.503 54.967 -121 52 C-121.672 51.437 -122.343 50.873 -123.035 50.293 C-124.703 48.877 -126.353 47.441 -128 46 C-123.985 46 -122.232 47.576 -118.875 49.75 C-100.282 61.448 -78.47 65.891 -56.945 59.973 C-26.887 50.046 -13.359 29.369 -0.889 1.706 C-0.742 1.424 -0.742 1.424 0 0 Z " fill="#79BCE5" transform="translate(400,373)"/>
<path d="M0 0 C0 3.509 -0.76 4.526 -2.625 7.438 C-7.911 16.027 -12.148 24.663 -15.141 34.309 C-15.424 35.197 -15.708 36.085 -16 37 C-16.217 37.913 -16.433 38.825 -16.656 39.766 C-18 42 -18 42 -21.266 42.926 C-22.591 43.079 -23.92 43.207 -25.25 43.312 C-26.555 43.453 -27.859 43.594 -29.203 43.738 C-33 44 -33 44 -36.422 43.918 C-37.273 43.945 -38.123 43.972 -39 44 C-39.165 44.33 -39.165 44.33 -40 46 C-41.867 46.441 -43.735 46.88 -45.605 47.305 C-51.659 49.062 -56.998 52.241 -62 56 C-62.804 56.289 -63.609 56.577 -64.438 56.875 C-67 58 -67 58 -69.5 60.688 C-72 63 -72 63 -74.353 62.792 C-77.063 61.981 -79.351 60.954 -81.852 59.637 C-93.023 53.924 -103.237 49.613 -115.652 47.586 C-116.757 47.393 -117.862 47.199 -119 47 C-119 46.67 -119 46.34 -119 46 C-104.479 45.139 -91.863 46.488 -79.266 54.266 C-76 56 -76 56 -73.742 55.91 C-72 55 -72 55 -69.125 52.438 C-58.032 42.58 -42.288 35.208 -27.375 36.562 C-23.891 36.574 -23.891 36.574 -21 36 C-19.358 33.755 -19.12 31.849 -18.641 29.117 C-16.435 18.384 -9.634 9.525 -2 2 C-1.34 1.34 -0.68 0.68 0 0 Z " fill="#76BCE7" transform="translate(272,136)"/>
<path d="M0 0 C0.66 0.33 1.32 0.66 2 1 C2.974 7.259 1.701 12.975 -0.344 18.871 C-1 21 -1 21 -1 24 C1.152 24.914 1.152 24.914 3.938 25.625 C8.931 26.931 8.931 26.931 10 28 C17.377 28.906 20.529 26.724 26 22 C28.109 20.238 28.109 20.238 30 19 C30.66 19.33 31.32 19.66 32 20 C31.729 20.339 31.729 20.339 30.355 22.055 C22.317 32.512 20.103 40.836 21 54 C21.226 54.913 21.451 55.825 21.684 56.766 C21.736 57.134 21.736 57.134 22 59 C20.05 60.406 18.04 61.73 16 63 C12.113 67.623 11.403 71.159 11 77 C10.67 77 10.34 77 10 77 C9.212 72.811 8.868 68.83 8.824 64.57 C8.8 63.362 8.777 62.155 8.752 60.91 C8.709 58.395 8.678 55.879 8.658 53.363 C8.471 45.188 7.928 38.826 1.887 32.941 C-2.834 29.982 -6.395 28.239 -12 28 C-10.624 24.352 -8.975 21.021 -7.062 17.625 C-3.917 11.917 -0.989 6.525 0 0 Z " fill="#1176C4" transform="translate(335,227)"/>
<path d="M0 0 C8.875 0.844 18.195 7.518 24.48 13.477 C26 16 26 16 25.613 18.648 C24.312 21.5 24.312 21.5 22.664 24.516 C20.653 28.727 19.902 32.669 19.188 37.25 C19.065 38.014 18.942 38.778 18.816 39.564 C18.532 41.374 18.264 43.187 18 45 C8.934 41.103 4.288 31.78 1 23 C0.68 22.163 0.361 21.327 0.031 20.465 C-2.037 14.424 -2.851 8.368 -2 2 C-1.34 1.34 -0.68 0.68 0 0 Z " fill="#FAFCFC" transform="translate(157,189)"/>
<path d="M0 0 C4.536 0.547 5.977 3.016 8.48 6.559 C15.527 17.88 17.817 28.765 17 42 C16.67 42.66 16.34 43.32 16 44 C12.603 42.459 9.836 40.445 6.875 38.188 C3.12 35.368 -0.346 33.329 -4.688 31.562 C-8.75 29.605 -8.75 29.605 -9.762 27.152 C-10.235 18.164 -6.43 6.43 0 0 Z " fill="#F4F9FB" transform="translate(278,142)"/>
<path d="M0 0 C2.597 2.597 2.338 4.485 2.273 8.039 C1.911 10.64 0.64 12.003 -1 14 C-1.188 16.25 -1.188 16.25 0 18 C3.072 18.396 5.051 18.595 8 18 C10.083 16.056 10.856 14.305 12.062 11.75 C12.372 11.173 12.681 10.595 13 10 C13.66 10 14.32 10 15 10 C15.67 17.768 15.67 17.768 12.688 21.438 C8.619 25.316 5.466 25.293 0 25 C-0.99 24.34 -1.98 23.68 -3 23 C-3.082 23.577 -3.165 24.155 -3.25 24.75 C-4.417 28.251 -6.732 30.366 -10 32 C-15.226 32.648 -18.834 32.846 -23.188 29.688 C-23.786 28.801 -24.384 27.914 -25 27 C-24.67 26.01 -24.34 25.02 -24 24 C-23.319 24.33 -22.639 24.66 -21.938 25 C-18.432 26.193 -15.683 26.273 -12 26 C-9 24 -9 24 -8.312 20.875 C-8.209 19.926 -8.106 18.978 -8 18 C-9.031 17.938 -10.062 17.876 -11.125 17.812 C-15.991 16.792 -17.68 15.653 -21 12 C-20.903 8.759 -20.482 7.442 -18.074 5.234 C-17.287 4.745 -16.499 4.255 -15.688 3.75 C-14.908 3.25 -14.128 2.75 -13.324 2.234 C-8.907 -0.111 -4.985 -0.277 0 0 Z " fill="#145080" transform="translate(266,244)"/>
<path d="M0 0 C2.642 0.449 5.28 0.912 7.915 1.404 C8.863 1.581 9.812 1.758 10.789 1.94 C18.575 3.505 25.2 5.965 32.165 9.842 C29.032 10.886 28.175 10.776 25.165 9.842 C25.846 10.522 26.526 11.203 27.228 11.904 C27.674 12.359 28.12 12.814 28.579 13.283 C29.727 14.411 30.915 15.497 32.126 16.556 C32.778 17.145 33.431 17.735 34.103 18.342 C34.73 18.888 35.358 19.435 36.005 19.998 C37.165 21.842 37.165 21.842 36.54 24.283 C35.222 26.735 33.824 29 32.228 31.279 C29.088 35.901 26.533 40.306 25.04 45.717 C24.751 46.748 24.463 47.779 24.165 48.842 C23.835 48.842 23.505 48.842 23.165 48.842 C23.289 41.24 23.659 35.28 27.353 28.529 C28.704 25.595 28.704 25.595 29.165 22.842 C24.917 15.548 14.981 10.477 7.165 7.842 C4.849 7.904 4.849 7.904 3.165 8.842 C0.994 16.416 4.383 24.493 6.974 31.556 C7.858 33.996 8.614 36.314 9.165 38.842 C8.505 38.842 7.845 38.842 7.165 38.842 C6.04 36.342 6.04 36.342 5.165 33.842 C4.175 34.502 3.185 35.162 2.165 35.842 C1.509 34.325 0.866 32.803 0.228 31.279 C0.048 30.856 0.048 30.856 -0.862 28.713 C-2.997 22.411 -2.992 16.042 -2.96 9.467 C-2.964 8.648 -2.968 7.829 -2.972 6.986 C-2.96 -0.256 -2.96 -0.256 0 0 Z " fill="#198EE6" transform="translate(152.8349609375,182.158447265625)"/>
<path d="M0 0 C-2.122 4.42 -4.628 8.625 -7.078 12.867 C-9.944 17.85 -9.944 17.85 -10.938 20.5 C-11.113 20.748 -11.113 20.748 -12 22 C-16.484 22.008 -19.355 19.562 -22.812 16.938 C-23.788 16.204 -24.764 15.471 -25.77 14.715 C-26.506 14.149 -27.242 13.583 -28 13 C-27.608 14.052 -27.216 15.104 -26.812 16.188 C-26.702 16.483 -26.702 16.483 -26.145 17.98 C-22.839 23.812 -17.529 26.625 -11.812 29.625 C-10.378 30.381 -8.947 31.144 -7.52 31.914 C-6.892 32.244 -6.264 32.573 -5.616 32.913 C-4 34 -4 34 -2 37 C-2.33 37.99 -2.66 38.98 -3 40 C-6.363 38.047 -9.689 36.039 -13 34 C-13.442 33.729 -13.442 33.729 -15.68 32.359 C-26.372 25.404 -29.819 17.107 -33 5 C-32.411 4.92 -31.822 4.839 -31.215 4.756 C-28.497 4.383 -25.78 4.004 -23.062 3.625 C-22.136 3.499 -21.21 3.372 -20.256 3.242 C-15.059 2.513 -9.972 1.625 -4.873 0.38 C-3 0 -3 0 0 0 Z " fill="#BED1DB" transform="translate(260,301)"/>
<path d="M0 0 C1.65 0.66 3.3 1.32 5 2 C4.773 2.553 4.547 3.107 4.313 3.677 C3.267 6.241 2.227 8.808 1.188 11.375 C0.831 12.245 0.475 13.115 0.107 14.012 C-3.342 22.556 -5.903 31.254 -8.125 40.188 C-8.294 40.847 -8.463 41.506 -8.637 42.186 C-10.957 51.457 -11.234 60.432 -11.25 69.938 C-11.253 70.629 -11.255 71.321 -11.258 72.034 C-11.275 81.358 -10.81 90.209 -8.559 99.297 C-8 102 -8 102 -9 105 C-22.287 70.603 -17.107 31.996 0 0 Z " fill="#73BAE6" transform="translate(187,309)"/>
<path d="M0 0 C8.717 7.211 13.696 18.472 17 29 C17.364 29.977 17.727 30.954 18.102 31.961 C19.742 37.773 19.207 43.959 19.125 49.938 C19.116 51.194 19.107 52.45 19.098 53.744 C19.074 56.83 19.041 59.915 19 63 C18.67 63 18.34 63 18 63 C17.975 62.223 17.95 61.446 17.924 60.645 C17.808 57.138 17.686 53.632 17.562 50.125 C17.523 48.902 17.484 47.678 17.443 46.418 C17.401 45.251 17.36 44.085 17.316 42.883 C17.298 42.343 17.298 42.343 17.205 39.614 C17 37 17 37 16 35 C15.67 40.61 15.34 46.22 15 52 C14.01 52 13.02 52 12 52 C12.165 51.67 12.165 51.67 13 50 C14.119 35.587 10.854 21.485 1.457 10.137 C0 9 0 9 -2.812 8.875 C-9.239 11.143 -12.649 17.163 -15.188 23.246 C-16.889 29.013 -17.403 35.035 -18 41 C-19.582 37.991 -20.439 35.363 -21 32 C-21.309 32.825 -21.619 33.65 -21.938 34.5 C-22.288 35.325 -22.639 36.15 -23 37 C-23.33 37 -23.66 37 -24 37 C-22.828 23.521 -14.667 10.798 -7 0 C-4.253 -1.374 -2.907 -0.872 0 0 Z " fill="#1690E8" transform="translate(281,134)"/>
<path d="M0 0 C3.875 1.75 3.875 1.75 5 4 C4.34 4 3.68 4 3 4 C8.315 14.63 17.236 19.654 28 24 C29.931 24.246 31.87 24.442 33.812 24.562 C36.199 24.871 36.199 24.871 38 26 C39.21 30.689 39.214 35.183 39 40 C38.113 39.835 37.226 39.67 36.312 39.5 C29.001 38.453 21.206 38.312 14 40 C14.495 39.835 14.495 39.835 17 39 C17.953 35.254 17.827 31.76 17 28 C15.159 25.746 13.251 24.217 10.906 22.504 C8.555 20.649 7.857 18.829 7 16 C6.34 16 5.68 16 5 16 C1.983 10.979 0.493 5.789 0 0 Z " fill="#0F78C7" transform="translate(205,332)"/>
<path d="M0 0 C1.455 0.241 2.911 0.481 4.367 0.719 C6.664 1.114 8.96 1.515 11.256 1.919 C15.505 2.647 19.622 3.141 23.938 3.312 C27.649 3.613 27.739 3.647 30.125 6.875 C31 10 31 10 31 13 C20.42 13.211 10.114 13.042 -0.386 11.624 C-5.814 10.907 -5.814 10.907 -8 12 C-8.33 11.01 -8.66 10.02 -9 9 C-9.598 8.587 -10.196 8.175 -10.812 7.75 C-11.008 7.461 -11.008 7.461 -12 6 C-9.43 -1.344 -7.384 -1.419 0 0 Z " fill="#1179C8" transform="translate(199,302)"/>
<path d="M0 0 C8.97 5.862 15.64 16.253 17 27 C17.067 29.27 17.085 31.542 17.062 33.812 C17.053 34.974 17.044 36.135 17.035 37.332 C17.024 38.212 17.012 39.093 17 40 C15.198 36.728 14.237 33.47 13.25 29.875 C9.875 18.777 4.823 10.655 -5.5 5.125 C-13.719 2.487 -23.194 2.35 -30.688 6.812 C-32.152 7.837 -33.592 8.898 -35 10 C-35.749 10.561 -36.498 11.121 -37.27 11.699 C-37.841 12.128 -38.412 12.558 -39 13 C-36.607 5.105 -31.056 0.21 -23.707 -3.117 C-15.417 -5.821 -7.46 -4.232 0 0 Z " fill="#76BCE7" transform="translate(245,380)"/>
<path d="M0 0 C0.66 0.66 1.32 1.32 2 2 C1.094 2.086 0.188 2.173 -0.746 2.262 C-11.038 3.449 -19.174 5.555 -25.723 14.008 C-30.855 22.013 -31.981 30.693 -33 40 C-34.32 40 -35.64 40 -37 40 C-39.471 32.587 -38.93 23.997 -35.336 17.062 C-26.885 4.015 -15.685 -1.911 0 0 Z " fill="#73B9E6" transform="translate(400,243)"/>
<path d="M0 0 C8.894 0.846 18.138 7.53 24.488 13.441 C26 16 26 16 25.543 18.965 C24.188 22.062 24.188 22.062 22.531 25.113 C20.542 28.863 20.242 31.812 20 36 C19.67 36 19.34 36 19 36 C18.925 35.25 18.85 34.5 18.773 33.727 C17.399 23.03 13.844 15.378 4.93 9.059 C2.955 7.975 1.202 7.435 -1 7 C-1 8.98 -1 10.96 -1 13 C-1.33 13 -1.66 13 -2 13 C-2.054 11.209 -2.093 9.417 -2.125 7.625 C-2.148 6.627 -2.171 5.63 -2.195 4.602 C-2 2 -2 2 0 0 Z " fill="#C4D4DD" transform="translate(157,189)"/>
<path d="M0 0 C2.062 0.25 2.062 0.25 4 1 C4 4 4 4 2.5 6.438 C-1.096 14.977 1.058 23.586 4 32 C4.348 33.329 4.687 34.662 5 36 C-8.025 30.833 -8.025 30.833 -10.07 26.988 C-10.136 24.435 -9.703 22.461 -9 20 C-8.734 18.926 -8.469 17.852 -8.195 16.746 C-6.473 10.49 -4.681 4.681 0 0 Z " fill="#C5D3DB" transform="translate(278,142)"/>
<path d="M0 0 C10.819 -1.061 19.981 3.474 27.938 10.5 C28.476 10.963 29.015 11.425 29.569 11.902 C31.027 13.281 31.027 13.281 33 16 C32.286 19.663 30.186 22.406 28.062 25.438 C24.923 30.059 22.368 34.465 20.875 39.875 C20.586 40.906 20.298 41.938 20 43 C19.67 43 19.34 43 19 43 C19.124 35.398 19.494 29.439 23.188 22.688 C24.527 19.75 24.527 19.75 25 17 C20.712 9.182 10.796 5.648 2.93 2.312 C1.963 1.879 0.996 1.446 0 1 C0 0.67 0 0.34 0 0 Z " fill="#115386" transform="translate(157,188)"/>
<path d="M0 0 C4.795 1.529 9.483 3.174 14.125 5.125 C22.63 8.543 34.533 10.347 43 6 C43.812 3.875 43.812 3.875 44 2 C44.99 2.33 45.98 2.66 47 3 C47 7.187 46.664 9.299 43.75 12.375 C35.77 17.091 26.907 15.195 18.539 12.48 C12.779 10.071 2.884 5.768 0 0 Z " fill="#0D77C8" transform="translate(212,337)"/>
<path d="M0 0 C0 23.1 0 46.2 0 70 C-0.33 70 -0.66 70 -1 70 C-1.33 57.13 -1.66 44.26 -2 31 C-2.33 31 -2.66 31 -3 31 C-3.253 29.483 -3.476 27.961 -3.688 26.438 C-4.728 20.87 -6.984 17.853 -11 14 C-12 13 -13 12 -14 11 C-13.397 10.541 -12.793 10.082 -12.172 9.609 C-11.772 9.303 -11.772 9.303 -9.75 7.75 C-8.961 7.147 -8.172 6.543 -7.359 5.922 C-5 4 -5 4 -2.766 1.766 C-1 0 -1 0 0 0 Z " fill="#1171BC" transform="translate(307,273)"/>
<path d="M0 0 C1.536 3.072 0.011 4.729 -1.312 7.812 C-3.99 14.476 -5.22 20.886 -6 28 C-5.118 28.269 -4.237 28.539 -3.328 28.816 C-0.191 29.932 2.406 31.223 5.25 32.938 C6.101 33.442 6.952 33.946 7.828 34.465 C10 36 10 36 12 39 C2.63 36.222 2.63 36.222 -1.188 34.875 C-4.433 33.865 -7.638 33.461 -11 33 C-13.403 30.597 -12.235 25.145 -12 22 C-10.455 13.384 -6.347 6.026 0 0 Z " fill="#0D5188" transform="translate(275,143)"/>
<path d="M0 0 C3.188 1.25 3.188 1.25 5 3 C5 4.32 5 5.64 5 7 C4.56 7.007 4.56 7.007 2.332 7.043 C-7.199 7.434 -7.199 7.434 -11.188 10.25 C-13 13 -13 13 -14.062 15.812 C-14.372 16.534 -14.681 17.256 -15 18 C-19 18 -19 18 -20 17 C-20.62 11.86 -20.597 9.142 -17.188 5.125 C-11.92 -0.467 -7.404 -0.703 0 0 Z " fill="#084F88" transform="translate(288,214)"/>
<path d="M0 0 C3.239 1.735 5.423 3.423 8 6 C8 7.32 8 8.64 8 10 C6.824 9.856 5.649 9.711 4.438 9.562 C3.707 9.477 2.976 9.392 2.223 9.305 C0.257 9.035 -1.689 8.622 -3.625 8.188 C-8.019 7.943 -9.678 9.219 -13 12 C-13.33 12.495 -13.33 12.495 -15 15 C-15.99 14.67 -16.98 14.34 -18 14 C-18.683 9.559 -18.579 7.704 -15.688 4.188 C-10.32 -0.181 -6.791 -0.887 0 0 Z " fill="#094F86" transform="translate(224,238)"/>
<path d="M0 0 C0.33 4.95 0.66 9.9 1 15 C1.33 15 1.66 15 2 15 C2.037 16.258 2.075 17.516 2.113 18.812 C2.474 28.757 3.325 38.187 5.477 47.91 C6 51 6 51 5 54 C-1.525 37.107 -3.498 19.031 -2 1 C-1 0 -1 0 0 0 Z " fill="#60ACDF" transform="translate(173,360)"/>
<path d="M0 0 C-2.574 8.316 -2.574 8.316 -5 12 C-9.873 12.557 -14.599 8.181 -18 5 C-18 4.34 -18 3.68 -18 3 C-15.547 2.342 -13.18 1.824 -10.688 1.375 C-9.997 1.241 -9.307 1.107 -8.596 0.969 C-5.685 0.418 -2.968 0 0 0 Z " fill="#F3F8F9" transform="translate(253,311)"/>
<path d="M0 0 C2.66 0.262 2.66 0.262 5 1 C4.759 1.418 4.759 1.418 3.539 3.535 C-1.323 12.359 -3.309 19.93 -4 30 C-5.582 26.991 -6.439 24.363 -7 21 C-7.309 21.825 -7.619 22.65 -7.938 23.5 C-8.288 24.325 -8.639 25.15 -9 26 C-9.33 26 -9.66 26 -10 26 C-9.461 19.805 -7.555 14.648 -5 9 C-4.604 8.117 -4.209 7.234 -3.801 6.324 C-3.392 5.495 -2.984 4.666 -2.562 3.812 C-2.193 3.056 -1.823 2.299 -1.441 1.52 C-0.966 1.018 -0.49 0.517 0 0 Z " fill="#2195E6" transform="translate(267,145)"/>
<path d="M0 0 C0.66 0.33 1.32 0.66 2 1 C2.103 1.908 2.206 2.815 2.312 3.75 C4.029 11.863 13.403 15.491 20.133 19.164 C23.306 20.903 24.948 21.922 27 25 C26.67 25.99 26.34 26.98 26 28 C22.637 26.047 19.311 24.039 16 22 C15.116 21.459 14.231 20.917 13.32 20.359 C6.069 15.643 0.116 9.958 -1 1 C-0.67 0.67 -0.34 0.34 0 0 Z " fill="#70B8E6" transform="translate(231,313)"/>
<path d="M0 0 C6.555 6.555 5.367 18.659 5.188 27.188 C5.174 28.426 5.16 29.664 5.146 30.939 C5.111 33.96 5.062 36.98 5 40 C4.67 40 4.34 40 4 40 C3.975 39.223 3.95 38.446 3.924 37.645 C3.808 34.138 3.686 30.632 3.562 27.125 C3.523 25.902 3.484 24.678 3.443 23.418 C3.422 22.835 3.422 22.835 3.316 19.883 C3.28 18.804 3.243 17.725 3.205 16.614 C3 14 3 14 2 12 C1.67 17.61 1.34 23.22 1 29 C0.01 29 -0.98 29 -2 29 C-1.67 28.34 -1.34 27.68 -1 27 C-0.917 25.552 -0.893 24.099 -0.902 22.648 C-0.906 21.798 -0.909 20.947 -0.912 20.07 C-0.92 19.181 -0.929 18.291 -0.938 17.375 C-0.94 16.926 -0.94 16.926 -0.951 14.656 C-0.963 12.437 -0.979 10.219 -1 8 C-0.34 8 0.32 8 1 8 C0.67 5.36 0.34 2.72 0 0 Z " fill="#1388DC" transform="translate(295,157)"/>
<path d="M0 0 C-0.33 0.031 -0.33 0.031 -2 0.188 C-2.66 0.456 -3.32 0.724 -4 1 C-3.959 1.784 -3.918 2.567 -3.875 3.375 C-3.916 4.241 -3.957 5.107 -4 6 C-7.63 8.392 -9.614 9 -14 9 C-13.34 7.35 -12.68 5.7 -12 4 C-13.13 4.764 -14.253 5.537 -15.375 6.312 C-16.001 6.742 -16.628 7.171 -17.273 7.613 C-19 9 -19 9 -21 12 C-20.686 8.866 -20.437 7.401 -18.074 5.234 C-17.287 4.745 -16.499 4.255 -15.688 3.75 C-14.908 3.25 -14.128 2.75 -13.324 2.234 C-8.854 -0.14 -5.032 -0.097 0 0 Z " fill="#266CA2" transform="translate(266,244)"/>
<path d="M0 0 C9.905 0.786 18.039 3.827 27 8 C23.781 9.073 23.098 8.799 20 8 C19.67 8.165 19.67 8.165 18 9 C15.645 8.258 15.645 8.258 12.812 7.125 C8.463 5.465 4.625 4.411 0 4 C0.33 3.938 0.33 3.938 2 3.625 C2.66 3.419 3.32 3.213 4 3 C4 2.34 4 1.68 4 1 C2 0.375 2 0.375 0 0 Z " fill="#2092E3" transform="translate(158,184)"/>
<path d="M0 0 C0.33 0 0.66 0 1 0 C1.362 1.957 1.714 3.916 2.062 5.875 C2.26 6.966 2.457 8.056 2.66 9.18 C3 12 3 12 2 14 C1.844 16.406 1.742 18.787 1.684 21.195 C1.663 21.903 1.642 22.61 1.621 23.339 C1.555 25.601 1.496 27.863 1.438 30.125 C1.394 31.658 1.351 33.19 1.307 34.723 C1.2 38.482 1.098 42.241 1 46 C0.67 46 0.34 46 0 46 C0 30.82 0 15.64 0 0 Z " fill="#1190ED" transform="translate(344,298)"/>
<path d="M0 0 C0.33 0 0.66 0 1 0 C1 13.86 1 27.72 1 42 C0.67 42 0.34 42 0 42 C-0.33 32.1 -0.66 22.2 -1 12 C-1.66 12 -2.32 12 -3 12 C-2.526 9.999 -2.046 7.999 -1.562 6 C-1.296 4.886 -1.029 3.772 -0.754 2.625 C-0.63 2.192 -0.63 2.192 0 0 Z " fill="#1193F2" transform="translate(305,300)"/>
<path d="M0 0 C1.52 0.988 1.52 0.988 3 3 C3.055 5.831 2.964 8.391 2.688 11.188 C2.626 11.937 2.565 12.687 2.502 13.459 C2.349 15.307 2.176 17.154 2 19 C0.418 15.991 -0.439 13.363 -1 10 C-1.309 10.825 -1.619 11.65 -1.938 12.5 C-2.113 12.912 -2.113 12.912 -3 15 C-3.33 15 -3.66 15 -4 15 C-3.432 9.545 -2.054 5.089 0 0 Z " fill="#359FEA" transform="translate(261,156)"/>
<path d="M0 0 C3.786 4.308 6.262 8.974 8.812 14.062 C9.232 14.865 9.652 15.667 10.084 16.494 C10.475 17.271 10.866 18.047 11.27 18.848 C11.626 19.549 11.983 20.25 12.351 20.973 C13.121 23.379 12.822 24.647 12 27 C11.481 25.938 10.961 24.876 10.426 23.781 C9.722 22.354 9.018 20.927 8.312 19.5 C7.95 18.767 7.588 18.034 7.215 17.279 C5.297 13.442 3.321 9.762 0.938 6.188 C-1 3 -1 3 0 0 Z " fill="#67B5E5" transform="translate(441,245)"/>
<path d="M0 0 C0.33 0 0.66 0 1 0 C1.892 4.603 2.164 9.001 2.188 13.688 C2.202 14.991 2.216 16.294 2.23 17.637 C2 21 2 21 0 24 C-1.385 19.045 -0.891 14.254 -0.562 9.188 C-0.51 8.304 -0.458 7.42 -0.404 6.51 C-0.275 4.339 -0.138 2.17 0 0 Z " fill="#BBD0DF" transform="translate(398,337)"/>
<path d="M0 0 C1.667 0.667 3.333 1.333 5 2 C6.992 2.376 8.992 2.72 11 3 C11 3.33 11 3.66 11 4 C9.35 4 7.7 4 6 4 C6 5.32 6 6.64 6 8 C2.639 7.027 1.317 6.59 -0.375 3.438 C-0.581 2.633 -0.787 1.829 -1 1 C-0.67 0.67 -0.34 0.34 0 0 Z " fill="#275A83" transform="translate(242,268)"/>
<path d="M0 0 C1.606 3.211 -0.143 5.404 -1.438 8.625 C-1.911 9.814 -2.384 11.002 -2.871 12.227 C-3.244 13.142 -3.616 14.057 -4 15 C-4.99 14.34 -5.98 13.68 -7 13 C-6.427 7.792 -4.105 3.256 0 0 Z " fill="#144E7D" transform="translate(275,143)"/>
<path d="M0 0 C5.096 -0.176 9.285 -0.24 14 2 C14 2.99 14 3.98 14 5 C10.1 6.3 8.962 5.352 5.312 3.625 C4.319 3.164 3.325 2.702 2.301 2.227 C1.921 2.024 1.921 2.024 0 1 C0 0.67 0 0.34 0 0 Z " fill="#195C90" transform="translate(157,188)"/>
<path d="M0 0 C0.66 0.33 1.32 0.66 2 1 C2.103 1.908 2.206 2.815 2.312 3.75 C3.185 7.876 4.88 9.251 8 12 C9 13 10 14 11 15 C10.01 15.66 9.02 16.32 8 17 C3.688 11.915 0.114 7.683 -1 1 C-0.67 0.67 -0.34 0.34 0 0 Z " fill="#64B1E2" transform="translate(231,313)"/>
</svg>
