<?xml version="1.0" encoding="UTF-8"?>
<svg width="28px" height="28px" viewBox="0 0 28 28" version="1.1" xmlns="http://www.w3.org/2000/svg" xmlns:xlink="http://www.w3.org/1999/xlink">
    <title>icon_ninght</title>
    <defs>
        <path d="M0,0 L896,0 L896,900 L0,900 L0,0 Z" id="path-1"></path>
        <path d="M0,0 L28,0 L28,28 L0,28 L0,0 Z" id="path-2"></path>
    </defs>
    <g id="页面-2" stroke="none" stroke-width="1" fill="none" fill-rule="evenodd">
        <g id="图标" transform="translate(-76, -214)" xlink:href="#path-1">
            <use fill="#FFFFFF" fill-rule="evenodd" xlink:href="#path-1"></use>
            <g id="icon_ninght" transform="translate(76, 214)" xlink:href="#path-2" fill-rule="nonzero">
                <path d="M2,14 C2,20.627417 7.372583,26 14,26 C20.627417,26 26,20.627417 26,14 C26,7.372583 20.627417,2 14,2 C7.372583,2 2,7.372583 2,14 Z" id="路径" fill-opacity="0.85" fill="#000000"></path>
                <path d="M13.712,6.99999999 C17.573,6.99999999 20.703,10.13 20.7035,13.991 C20.7035,17.852 17.573,20.9825 13.712,20.9825 C11.0045,20.9825 8.6615,19.4405 7.50000001,17.1895 C8.45821381,17.8877679 9.61335599,18.2638282 10.799,18.2635 C13.909,18.2635 16.431,15.742 16.431,12.6315 C16.431,9.9965 14.6175,7.78950001 12.1725,7.17549999 C12.668,7.064 13.1825,6.99999999 13.7125,6.99999999 L13.712,6.99999999 Z M10.2815,13.0395 C10.446,13.041 10.5865,12.9465 10.6465,12.7935 L10.886,12.188 C10.944515,12.0334258 11.0959092,11.9341111 11.261,11.942 C11.4261458,11.9460451 11.5699802,12.055787 11.6175,12.214 L11.8125,12.8355 C11.8588755,12.990229 11.9976698,13.0989812 12.159,13.107 L12.809,13.147 C12.9775,13.157 13.113,13.266 13.159,13.428 C13.2059759,13.5862722 13.1461013,13.756824 13.0105,13.851 L12.4795,14.2285 C12.3464939,14.320537 12.2859821,14.4864434 12.3285,14.6425 L12.492,15.2725 C12.5353145,15.4322642 12.4709459,15.6017614 12.3325,15.6925 C12.1964748,15.7860121 12.015772,15.7815752 11.8845,15.6815 L11.361,15.2935 C11.2325191,15.1955314 11.0562572,15.1891219 10.921,15.2775 L10.3715,15.6275 C10.2331279,15.7178403 10.052355,15.7089631 9.92349999,15.6055 C9.79219258,15.5052555 9.74032362,15.3318881 9.79500001,15.176 L10.0025,14.5585 C10.0555649,14.4060962 10.0071335,14.2367867 9.88149999,14.1355 L9.37899999,13.7205 C9.25035446,13.6169588 9.20293174,13.4424028 9.2615,13.288 C9.31639665,13.1321339 9.46529183,13.0292388 9.6305,13.033 L10.2815,13.0395 L10.2815,13.0395 Z M8.00499999,9.041 C7.91755147,8.97061815 7.88527114,8.85198794 7.925,8.747 C7.96236744,8.64099104 8.06362577,8.57099772 8.17599999,8.57349999 L8.61849999,8.57850001 C8.72832275,8.58090805 8.82771869,8.51377571 8.86650001,8.411 L9.029,7.99950001 C9.06877601,7.89441292 9.17177375,7.82695949 9.284,7.83249999 C9.39618209,7.83535458 9.49381947,7.90999473 9.52599999,8.01750001 L9.65850001,8.4395 C9.69001471,8.54486947 9.7846395,8.61884521 9.8945,8.624 L10.336,8.651 C10.4480947,8.65672865 10.5438593,8.73374347 10.5735,8.84199999 C10.6057349,8.94959553 10.5649451,9.06570512 10.4725,9.1295 L10.1125,9.386 C10.0220472,9.44834369 9.9807649,9.56096821 10.0095,9.66699999 L10.1195,10.0955 C10.1493862,10.2037658 10.1059427,10.3189416 10.012,10.3805 C9.91950453,10.4443272 9.79646983,10.4415035 9.707,10.3735 L9.35199999,10.1095 C9.26458454,10.0431159 9.14485681,10.0389114 9.053,10.099 L8.6795,10.3365 C8.58529679,10.398019 8.46221217,10.3919656 8.37450001,10.3215 C8.2855329,10.2531346 8.25045723,10.1354094 8.28750001,10.0295 L8.429,9.61050001 C8.4651295,9.50671201 8.43210226,9.39141693 8.3465,9.32250001 L8.00499999,9.041 L8.00499999,9.041 Z" id="形状" fill="#FFFFFF"></path>
            </g>
        </g>
    </g>
</svg>