<?xml version="1.0" encoding="UTF-8"?>
<svg width="16px" height="16px" viewBox="0 0 16 16" version="1.1" xmlns="http://www.w3.org/2000/svg" xmlns:xlink="http://www.w3.org/1999/xlink">
    <title>icon_riqi</title>
    <defs>
        <path d="M0,0 L896,0 L896,900 L0,900 L0,0 Z" id="path-1"></path>
        <path d="M0,0 L16,0 L16,16 L0,16 L0,0 Z" id="path-2"></path>
    </defs>
    <g id="页面-2" stroke="none" stroke-width="1" fill="none" fill-rule="evenodd">
        <g id="图标" transform="translate(-108, -370)" xlink:href="#path-1">
            <use fill="#FFFFFF" fill-rule="evenodd" xlink:href="#path-1"></use>
            <g id="icon_riqi" transform="translate(108, 370)" xlink:href="#path-2" stroke="#979797" stroke-width="1">
                <rect id="矩形" x="0.5" y="2.5" width="15" height="13" rx="2"></rect>
                <rect id="矩形-2" fill="#D8D8D8" fill-rule="evenodd" x="11.5" y="0.5" width="1" height="4" rx="0.5"></rect>
                <rect id="矩形-2备份" fill="#D8D8D8" fill-rule="evenodd" x="4.5" y="0.5" width="1" height="4" rx="0.5"></rect>
                <rect id="矩形-3" fill="#D8D8D8" fill-rule="evenodd" x="0.5" y="5.95279948" width="15" height="1" rx="0.5"></rect>
                <rect id="矩形-3备份" fill="#D8D8D8" fill-rule="evenodd" x="3.5" y="8.95279948" width="3" height="1" rx="0.5"></rect>
                <rect id="矩形-3备份-2" fill="#D8D8D8" fill-rule="evenodd" x="9.5" y="8.95279948" width="3" height="1" rx="0.5"></rect>
                <rect id="矩形-3备份-4" fill="#D8D8D8" fill-rule="evenodd" x="3.5" y="10.9527995" width="3" height="1" rx="0.5"></rect>
                <rect id="矩形-3备份-3" fill="#D8D8D8" fill-rule="evenodd" x="9.5" y="10.9527995" width="3" height="1" rx="0.5"></rect>
                <rect id="矩形-3备份-6" fill="#D8D8D8" fill-rule="evenodd" x="3.5" y="12.9527995" width="3" height="1" rx="0.5"></rect>
                <rect id="矩形-3备份-5" fill="#D8D8D8" fill-rule="evenodd" x="9.5" y="12.9527995" width="3" height="1" rx="0.5"></rect>
            </g>
        </g>
    </g>
</svg>