<?xml version="1.0" encoding="UTF-8"?>
<svg width="16px" height="16px" viewBox="0 0 16 16" version="1.1" xmlns="http://www.w3.org/2000/svg" xmlns:xlink="http://www.w3.org/1999/xlink">
    <title>icon_xiangce</title>
    <defs>
        <path d="M0,0 L896,0 L896,900 L0,900 L0,0 Z" id="path-1"></path>
        <path d="M0,0 L16,0 L16,16 L0,16 L0,0 Z" id="path-2"></path>
    </defs>
    <g id="页面-2" stroke="none" stroke-width="1" fill="none" fill-rule="evenodd">
        <g id="图标" transform="translate(-24, -336)" xlink:href="#path-1">
            <use fill="#FFFFFF" fill-rule="evenodd" xlink:href="#path-1"></use>
            <g id="icon_xiangce" transform="translate(24, 336)" xlink:href="#path-2">
                <rect id="矩形-31" stroke="#FFFFFF" stroke-width="1" fill="#D8D8D8" fill-rule="evenodd" x="11.5" y="2.5" width="1" height="1" rx="0.5"></rect>
                <path d="M7,1.5 C7.41421356,1.5 7.78921356,1.66789322 8.06066017,1.93933983 C8.33210678,2.21078644 8.5,2.58578644 8.5,3 L8.5,3.5 L3.5,3.5 C3.5,2.58578644 3.66789322,2.21078644 3.93933983,1.93933983 C4.21078644,1.66789322 4.58578644,1.5 5,1.5 Z" id="矩形-27" stroke="#FFFFFF" stroke-width="1"></path>
                <rect id="矩形-29" stroke="#FFFFFF" stroke-width="1" x="1.5" y="3.5" width="13" height="11" rx="2"></rect>
                <circle id="椭圆形-10" fill="#FFFFFF" fill-rule="evenodd" cx="12" cy="6" r="1"></circle>
                <circle id="椭圆形-9" stroke="#FFFFFF" stroke-width="1" cx="8" cy="9" r="2.5"></circle>
            </g>
        </g>
    </g>
</svg>