<?xml version="1.0" encoding="UTF-8"?>
<svg width="46px" height="46px" viewBox="0 0 46 46" version="1.1" xmlns="http://www.w3.org/2000/svg" xmlns:xlink="http://www.w3.org/1999/xlink">
    <title>icon_touxiangmoren</title>
    <defs>
        <path d="M0,0 L896,0 L896,900 L0,900 L0,0 Z" id="path-1"></path>
        <path d="M0,0 L46,0 L46,46 L0,46 L0,0 Z" id="path-2"></path>
    </defs>
    <g id="页面-2" stroke="none" stroke-width="1" fill="none" fill-rule="evenodd">
        <g id="图标" transform="translate(-24, -266)" xlink:href="#path-1">
            <use fill="#FFFFFF" xlink:href="#path-1"></use>
            <g id="icon_touxiangmoren" transform="translate(24, 266)" xlink:href="#path-2">
                <circle id="椭圆形" fill-opacity="0.85" fill="#000000" cx="23" cy="23" r="22"></circle>
                <circle id="椭圆形-6" fill="#FFFFFF" cx="23" cy="18" r="8"></circle>
                <path d="M15,28 L31,28 C33.209139,28 35,29.790861 35,32 L35,33 C35,34.6568542 33.6568542,36 32,36 L14,36 C12.3431458,36 11,34.6568542 11,33 L11,32 C11,29.790861 12.790861,28 15,28 Z" id="矩形-6" fill="#FFFFFF"></path>
            </g>
        </g>
    </g>
</svg>