<?xml version="1.0" encoding="UTF-8"?>
<svg width="202px" height="122px" viewBox="0 0 202 122" version="1.1" xmlns="http://www.w3.org/2000/svg" xmlns:xlink="http://www.w3.org/1999/xlink">
    <title>vip_36.9_unselect</title>
    <defs>
        <path d="M0,0 L202,0 L202,122 L0,122 L0,0 Z" id="path-1"></path>
    </defs>
    <g id="vip_36.9_unselect" stroke="none" fill="none" xlink:href="#path-1">
        <text id="立减81.9备份" font-family="PingFangSC-Regular, PingFang SC" font-size="12" font-weight="normal" letter-spacing="0.3" fill="#AFAFAF">
            <tspan x="9" y="16">立减81.9</tspan>
        </text>
        <rect id="矩形备份-8" stroke="#DDDDDD" stroke-width="1" fill="#FFFFFF" fill-rule="evenodd" x="1.5" y="1.5" width="199" height="119" rx="8"></rect>
        <text id="一年会员" font-family="PingFangSC-Semibold, PingFang SC" font-size="14" font-weight="500" letter-spacing="0.35" fill="#555555">
            <tspan x="65" y="42">一年会员</tspan>
        </text>
        <text id="¥备份" font-family="PingFangSC-Regular, PingFang SC" font-size="14" font-weight="normal" letter-spacing="0.35" fill="#555555">
            <tspan x="40" y="82">¥</tspan>
        </text>
        <text id="36.9" font-family="PingFangSC-Semibold, PingFang SC" font-size="36" font-weight="500" letter-spacing="0.9" fill="#555555">
            <tspan x="55" y="85">36.9</tspan>
        </text>
        <text id="¥118.8" font-family="PingFangSC-Semibold, PingFang SC" font-size="10" font-weight="500" letter-spacing="0.25" fill="#6E6E6E">
            <tspan x="140" y="83">¥118.8</tspan>
        </text>
        <rect id="矩形-5备份" fill="#6E6E6E" fill-rule="evenodd" transform="translate(155, 79.5) rotate(-15) translate(-155, -79.5)" x="137" y="79" width="36" height="1" rx="0.5"></rect>
        <path d="M9,1 L65,1 L65,1 L65,15 C65,19.418278 61.418278,23 57,23 L1,23 L1,23 L1,9 C1,4.581722 4.581722,1 9,1 Z" id="矩形-2备份-5" fill="#5E5E5E" fill-rule="evenodd"></path>
        <text id="立减81.9" font-family="PingFangSC-Regular, PingFang SC" font-size="12" font-weight="normal" letter-spacing="0.3" fill="#AFAFAF">
            <tspan x="9" y="16">立减81.9</tspan>
        </text>
    </g>
</svg>