<?xml version="1.0" encoding="UTF-8"?>
<svg width="48px" height="48px" viewBox="0 0 48 48" version="1.1" xmlns="http://www.w3.org/2000/svg" xmlns:xlink="http://www.w3.org/1999/xlink">
    <title>icon_all</title>
    <defs>
        <path d="M0,0 L896,0 L896,900 L0,900 L0,0 Z" id="path-1"></path>
        <path d="M0,0 L48,0 L48,48 L0,48 L0,0 Z" id="path-2"></path>
        <linearGradient x1="-17.0122196%" y1="111.588542%" x2="67.9186699%" y2="37.4524239%" id="linearGradient-3">
            <stop stop-color="#1ED0FD" offset="0%"></stop>
            <stop stop-color="#0DA3FB" offset="100%"></stop>
        </linearGradient>
        <path d="M6,5 L20,5 C21.1045695,5 22,5.8954305 22,7 L22,21 C22,22.1045695 21.1045695,23 20,23 L6,23 C4.8954305,23 4,22.1045695 4,21 L4,7 C4,5.8954305 4.8954305,5 6,5 Z M6,26 L20,26 C21.1045695,26 22,26.8954305 22,28 L22,42 C22,43.1045695 21.1045695,44 20,44 L6,44 C4.8954305,44 4,43.1045695 4,42 L4,28 C4,26.8954305 4.8954305,26 6,26 Z M27,26 L41,26 C42.1045695,26 43,26.8954305 43,28 L43,42 C43,43.1045695 42.1045695,44 41,44 L27,44 C25.8954305,44 25,43.1045695 25,42 L25,28 C25,26.8954305 25.8954305,26 27,26 Z" id="path-4"></path>
        <filter x="-6.4%" y="-6.4%" width="112.8%" height="112.8%" filterUnits="objectBoundingBox" id="filter-5">
            <feGaussianBlur stdDeviation="1.5" in="SourceAlpha" result="shadowBlurInner1"></feGaussianBlur>
            <feOffset dx="1" dy="2" in="shadowBlurInner1" result="shadowOffsetInner1"></feOffset>
            <feComposite in="shadowOffsetInner1" in2="SourceAlpha" operator="arithmetic" k2="-1" k3="1" result="shadowInnerInner1"></feComposite>
            <feColorMatrix values="0 0 0 0 0.218120144   0 0 0 0 0.691812813   0 0 0 0 0.962494339  0 0 0 1 0" type="matrix" in="shadowInnerInner1"></feColorMatrix>
        </filter>
        <linearGradient x1="72.6592345%" y1="-28.4211176%" x2="10.6288822%" y2="100%" id="linearGradient-6">
            <stop stop-color="#E5F1FF" stop-opacity="0.275404283" offset="0%"></stop>
            <stop stop-color="#CBD7E6" stop-opacity="0.300999781" offset="100%"></stop>
        </linearGradient>
        <rect id="path-7" x="15.5563492" y="7.55634919" width="26" height="26" rx="4"></rect>
        <filter x="-19.2%" y="-15.4%" width="138.5%" height="138.5%" filterUnits="objectBoundingBox" id="filter-8">
            <feOffset dx="0" dy="1" in="SourceAlpha" result="shadowOffsetOuter1"></feOffset>
            <feGaussianBlur stdDeviation="1.5" in="shadowOffsetOuter1" result="shadowBlurOuter1"></feGaussianBlur>
            <feComposite in="shadowBlurOuter1" in2="SourceAlpha" operator="out" result="shadowBlurOuter1"></feComposite>
            <feColorMatrix values="0 0 0 0 0.0375738544   0 0 0 0 0.31837123   0 0 0 0 0.568755661  0 0 0 0.25 0" type="matrix" in="shadowBlurOuter1"></feColorMatrix>
        </filter>
        <filter x="-17.3%" y="-13.5%" width="134.6%" height="134.6%" filterUnits="objectBoundingBox" id="filter-9">
            <feGaussianBlur stdDeviation="1.5" in="SourceAlpha" result="shadowBlurInner1"></feGaussianBlur>
            <feOffset dx="0" dy="0" in="shadowBlurInner1" result="shadowOffsetInner1"></feOffset>
            <feComposite in="shadowOffsetInner1" in2="SourceAlpha" operator="arithmetic" k2="-1" k3="1" result="shadowInnerInner1"></feComposite>
            <feColorMatrix values="0 0 0 0 0.407843137   0 0 0 0 0.580392157   0 0 0 0 0.925490196  0 0 0 1 0" type="matrix" in="shadowInnerInner1"></feColorMatrix>
        </filter>
        <path d="M41.6568542,17.1568542 L41.6568542,19.1568542 L41.6558542,19.1568542 L41.6568542,23.1568542 L39.6568542,23.1568542 L39.6558542,19.1568542 L31.6568542,19.1568542 L31.6568542,17.1568542 L41.6568542,17.1568542 Z" id="path-10"></path>
        <filter x="-110.0%" y="-116.7%" width="320.0%" height="466.7%" filterUnits="objectBoundingBox" id="filter-11">
            <feOffset dx="0" dy="4" in="SourceAlpha" result="shadowOffsetOuter1"></feOffset>
            <feGaussianBlur stdDeviation="3" in="shadowOffsetOuter1" result="shadowBlurOuter1"></feGaussianBlur>
            <feColorMatrix values="0 0 0 0 0   0 0 0 0 0   0 0 0 0 0  0 0 0 0.25 0" type="matrix" in="shadowBlurOuter1"></feColorMatrix>
        </filter>
        <radialGradient cx="76.8554687%" cy="26.6764323%" fx="76.8554687%" fy="26.6764323%" r="75.483508%" gradientTransform="translate(0.7686, 0.2668), scale(0.6, 1), rotate(103.7396), translate(-0.7686, -0.2668)" id="radialGradient-12">
            <stop stop-color="#FFFFFF" offset="0%"></stop>
            <stop stop-color="#FFFFFF" offset="0%"></stop>
            <stop stop-color="#FFFFFF" offset="100%"></stop>
        </radialGradient>
        <path d="M40.6568542,17.1568542 C41.209139,17.1568542 41.6568542,17.6045695 41.6568542,18.1568542 L41.6558542,18.1728542 L41.6568542,22.1568542 C41.6568542,22.709139 41.209139,23.1568542 40.6568542,23.1568542 C40.1045695,23.1568542 39.6568542,22.709139 39.6568542,22.1568542 L39.6558542,19.1568542 L32.6568542,19.1568542 C32.1045695,19.1568542 31.6568542,18.709139 31.6568542,18.1568542 C31.6568542,17.6045695 32.1045695,17.1568542 32.6568542,17.1568542 L40.6568542,17.1568542 Z" id="path-13"></path>
        <filter x="-75.0%" y="-125.0%" width="250.0%" height="350.0%" filterUnits="objectBoundingBox" id="filter-14">
            <feOffset dx="0" dy="0" in="SourceAlpha" result="shadowOffsetOuter1"></feOffset>
            <feGaussianBlur stdDeviation="2.5" in="shadowOffsetOuter1" result="shadowBlurOuter1"></feGaussianBlur>
            <feColorMatrix values="0 0 0 0 0.859176857   0 0 0 0 0.859176857   0 0 0 0 0.859176857  0 0 0 0.553567526 0" type="matrix" in="shadowBlurOuter1"></feColorMatrix>
        </filter>
        <filter x="-65.0%" y="-108.3%" width="230.0%" height="316.7%" filterUnits="objectBoundingBox" id="filter-15">
            <feGaussianBlur stdDeviation="1" in="SourceAlpha" result="shadowBlurInner1"></feGaussianBlur>
            <feOffset dx="0" dy="1" in="shadowBlurInner1" result="shadowOffsetInner1"></feOffset>
            <feComposite in="shadowOffsetInner1" in2="SourceAlpha" operator="arithmetic" k2="-1" k3="1" result="shadowInnerInner1"></feComposite>
            <feColorMatrix values="0 0 0 0 0.497395833   0 0 0 0 0.497395833   0 0 0 0 0.497395833  0 0 0 0.25 0" type="matrix" in="shadowInnerInner1"></feColorMatrix>
        </filter>
    </defs>
    <g id="页面-2" stroke="none" stroke-width="1" fill="none" fill-rule="evenodd">
        <g id="图标" transform="translate(-24, -142)" xlink:href="#path-1">
            <use fill="#FFFFFF" fill-rule="evenodd" xlink:href="#path-1"></use>
            <g id="icon_all" transform="translate(24, 142)" xlink:href="#path-2">
                <g id="形状结合">
                    <use fill="url(#linearGradient-3)" fill-rule="evenodd" xlink:href="#path-4"></use>
                    <use fill="black" fill-opacity="1" filter="url(#filter-5)" xlink:href="#path-4"></use>
                </g>
                <g id="矩形-3备份-2" transform="translate(28.5563, 20.5563) rotate(45) translate(-28.5563, -20.5563)">
                    <use fill="black" fill-opacity="1" filter="url(#filter-8)" xlink:href="#path-7"></use>
                    <use fill-opacity="0.4" fill="#B6D4FA" fill-rule="evenodd" xlink:href="#path-7"></use>
                    <use fill="black" fill-opacity="1" filter="url(#filter-9)" xlink:href="#path-7"></use>
                    <rect stroke="url(#linearGradient-6)" stroke-width="1" stroke-linejoin="square" x="16.0563492" y="8.05634919" width="25" height="25" rx="4"></rect>
                </g>
                <g id="形状结合" transform="translate(36.6569, 20.1569) rotate(45) translate(-36.6569, -20.1569)" fill="black" fill-opacity="1">
                    <use filter="url(#filter-11)" xlink:href="#path-10"></use>
                </g>
                <g id="形状结合" transform="translate(36.6569, 20.1569) rotate(45) translate(-36.6569, -20.1569)">
                    <use fill="black" fill-opacity="1" filter="url(#filter-14)" xlink:href="#path-13"></use>
                    <use fill="url(#radialGradient-12)" fill-rule="evenodd" xlink:href="#path-13"></use>
                    <use fill="black" fill-opacity="1" filter="url(#filter-15)" xlink:href="#path-13"></use>
                </g>
            </g>
        </g>
    </g>
</svg>