<?xml version="1.0" encoding="UTF-8"?>
<svg width="32px" height="32px" viewBox="0 0 32 32" version="1.1" xmlns="http://www.w3.org/2000/svg" xmlns:xlink="http://www.w3.org/1999/xlink">
    <title>icon_mac</title>
    <defs>
        <path d="M0,0 L896,0 L896,900 L0,900 L0,0 Z" id="path-1"></path>
        <path d="M0,0 L32,0 L32,32 L0,32 L0,0 Z" id="path-2"></path>
        <linearGradient x1="100%" y1="5.55111512e-15%" x2="1.08940634e-13%" y2="104.194336%" id="linearGradient-3">
            <stop stop-color="#F2F2F2" offset="0%"></stop>
            <stop stop-color="#6D7278" offset="100%"></stop>
        </linearGradient>
    </defs>
    <g id="页面-2" stroke="none" stroke-width="1" fill="none" fill-rule="evenodd">
        <g id="图标" transform="translate(-648, -142)" xlink:href="#path-1">
            <use fill="#FFFFFF" fill-rule="evenodd" xlink:href="#path-1"></use>
            <g id="icon_mac" transform="translate(648, 142)" xlink:href="#path-2">
                <rect id="矩形" fill="url(#linearGradient-3)" fill-rule="evenodd" x="1" y="1" width="30" height="30" rx="4"></rect>
                <g id="win" transform="translate(11, 9)" fill="#000000" fill-rule="nonzero">
                    <path d="M12.5,10.2612583 C12.4822497,10.3146486 12.2049301,11.2735107 11.5235258,12.2594831 C10.9337701,13.1099903 10.3239427,13.9673831 9.3607856,13.9824348 C8.41361591,13.9989398 8.11051743,13.422235 7.02909498,13.422235 C5.94905135,13.422235 5.60950983,13.9673831 4.7143692,13.9989398 C3.78899901,14.0364825 3.07692874,13.069887 2.48493897,12.223532 C1.27507579,10.48975 0.343509581,7.31041713 1.59288761,5.17973748 C2.20760192,4.11367968 3.31249942,3.43604207 4.51569536,3.41753022 C5.42240769,3.40054084 6.2850847,4.02637987 6.83579682,4.02637987 C7.40157137,4.02637987 8.4451545,3.26910669 9.5461075,3.38240962 C10.0070734,3.40187301 11.2964376,3.57342772 12.1271746,4.76692319 C12.061811,4.81100562 10.5844197,5.67523233 10.6008784,7.43415244 C10.6230793,9.55758302 12.4800157,10.2540093 12.5,10.2612583 M8.82565951,2.24496871 C9.32212598,1.64466567 9.64836787,0.819486851 9.56253127,0 C8.85367247,0.0275601732 7.99001805,0.466637097 7.47672636,1.06337618 C7.02288149,1.58400905 6.62286339,2.42204235 6.73442653,3.23201377 C7.5220358,3.27943525 8.33186345,2.82317863 8.82565951,2.24496871" id="形状"></path>
                </g>
                <text id="." font-family="PingFangSC-Medium, PingFang SC" font-size="12" font-weight="400" fill="#000000">
                    <tspan x="7" y="21">.</tspan>
                </text>
            </g>
        </g>
    </g>
</svg>