<?xml version="1.0" encoding="UTF-8"?>
<svg width="28px" height="28px" viewBox="0 0 28 28" version="1.1" xmlns="http://www.w3.org/2000/svg" xmlns:xlink="http://www.w3.org/1999/xlink">
    <title>icon_sun</title>
    <defs>
        <path d="M0,0 L896,0 L896,900 L0,900 L0,0 Z" id="path-1"></path>
        <path d="M0,0 L28,0 L28,28 L0,28 L0,0 Z" id="path-2"></path>
    </defs>
    <g id="页面-2" stroke="none" stroke-width="1" fill="none" fill-rule="evenodd">
        <g id="图标" transform="translate(-128, -214)" xlink:href="#path-1">
            <use fill="#FFFFFF" fill-rule="evenodd" xlink:href="#path-1"></use>
            <g id="icon_sun" transform="translate(128, 214)" xlink:href="#path-2" fill-rule="nonzero">
                <path d="M2,14 C2,20.627417 7.372583,26 14,26 C20.627417,26 26,20.627417 26,14 C26,7.372583 20.627417,2 14,2 C7.372583,2 2,7.372583 2,14 Z" id="路径" fill="#0091FF"></path>
                <path d="M19.6135385,11.5507692 L19.6135385,8.29846153 L16.2375385,8.29846153 L13.9378462,6 L11.5513846,8.38523077 L8.29846153,8.38523077 L8.29846153,11.7618462 L6,14.0627692 L8.38646153,16.4492308 L8.38646153,19.7015385 L11.7624615,19.7015385 L14.0621538,22 L16.4498462,19.6129231 L19.7015385,19.6129231 L19.7015385,16.2375385 L22,13.9372308 L19.6135385,11.5507692 Z M14,18.6350769 C12.3436068,18.6351869 10.8129777,17.7516132 9.98468585,16.3171896 C9.15639403,14.8827659 9.15627674,13.1154154 9.98437816,11.6808818 C10.8124796,10.2463483 12.3429914,9.36257144 13.9993846,9.36246153 C16.5599466,9.36229165 18.63583,11.4378995 18.6359999,13.9984615 C18.6361698,16.5590235 16.560562,18.6349069 14,18.6350769 Z" id="形状" fill="#FFFFFF"></path>
                <path d="M17.0523078,14.0756923 C17.0526375,15.1751909 16.4663667,16.1913455 15.5143379,16.7413804 C14.5623091,17.2914153 13.389158,17.2917672 12.4367994,16.7423035 C11.4844408,16.1928398 10.8975605,15.1770371 10.8972306,14.0775385 C10.896721,12.3780309 12.2740309,10.9998945 13.9735385,10.9993845 C15.6730461,10.9988749 17.0511825,12.3761847 17.0516923,14.0756923" id="路径" fill="#FFFFFF"></path>
            </g>
        </g>
    </g>
</svg>