<?xml version="1.0" encoding="UTF-8"?>
<svg width="32px" height="32px" viewBox="0 0 32 32" version="1.1" xmlns="http://www.w3.org/2000/svg" xmlns:xlink="http://www.w3.org/1999/xlink">
    <title>icon_big_return</title>
    <defs>
        <path d="M0,0 L896,0 L896,900 L0,900 L0,0 Z" id="path-1"></path>
        <path d="M0,0 L32,0 L32,32 L0,32 L0,0 Z" id="path-2"></path>
    </defs>
    <g id="页面-2" stroke="none" stroke-width="1" fill="none" fill-rule="evenodd">
        <g id="图标" transform="translate(-236, -329)" xlink:href="#path-1">
            <use fill="#FFFFFF" fill-rule="evenodd" xlink:href="#path-1"></use>
            <g id="icon_big_return" transform="translate(236, 329)" xlink:href="#path-2" stroke="#333333" stroke-width="1">
                <path d="M21.7086309,3.95773811 C21.9342232,4.07977695 21.9586309,4.14375753 21.9586309,4.20773811 C21.9586309,4.27171869 21.9342232,4.33569927 21.8854301,4.38449236 L10.3941929,15.8742704 L21.8854076,27.3654852 C21.9342232,27.4143007 21.9586309,27.4782813 21.9586309,27.5422619 C21.9586309,27.6062425 21.9342232,27.670223 21.8854076,27.7190386 C21.8365921,27.7678541 21.7726115,27.7922619 21.7086309,27.7922619 C21.6446504,27.7922619 21.5806698,27.7678541 21.5318542,27.7190386 L9.86459236,16.0517767 C9.81577682,16.0029612 9.79136906,15.9389806 9.79136906,15.875 C9.79136906,15.8110194 9.81577682,15.7470388 9.86459236,15.6982233 L21.5318542,4.03096142 C21.5806698,3.98214588 21.6446504,3.95773811 21.7086309,3.95773811 Z" id="形状结合"></path>
            </g>
        </g>
    </g>
</svg>