<?xml version="1.0" encoding="UTF-8"?>
<svg width="16px" height="16px" viewBox="0 0 16 16" version="1.1" xmlns="http://www.w3.org/2000/svg" xmlns:xlink="http://www.w3.org/1999/xlink">
    <title>icon_add_button_b</title>
    <defs>
        <path d="M0,0 L896,0 L896,900 L0,900 L0,0 Z" id="path-1"></path>
        <path d="M0,0 L16,0 L16,16 L0,16 L0,0 Z" id="path-2"></path>
    </defs>
    <g id="页面-2" stroke="none" stroke-width="1" fill="none" fill-rule="evenodd">
        <g id="图标" transform="translate(-50, -434)" xlink:href="#path-1">
            <use fill="#FFFFFF" fill-rule="evenodd" xlink:href="#path-1"></use>
            <g id="icon_add_button_b" transform="translate(50, 434)" xlink:href="#path-2" stroke="#ADADAD" stroke-width="1">
                <path d="M7.8232233,2.5732233 C8.06903559,2.5 8.13153559,2.5279822 8.1767767,2.5732233 C8.2220178,2.61846441 8.25,2.68096441 8.25,2.75 L8.25,7.75 L13.25,7.75 C13.3190356,7.75 13.3815356,7.7779822 13.4267767,7.8232233 C13.4720178,7.86846441 13.5,7.93096441 13.5,8 C13.5,8.06903559 13.4720178,8.13153559 13.4267767,8.1767767 C13.3815356,8.2220178 13.3190356,8.25 13.25,8.25 L8.25,8.25 L8.25,13.25 C8.25,13.3190356 8.2220178,13.3815356 8.1767767,13.4267767 C8.13153559,13.4720178 8.06903559,13.5 8,13.5 C7.93096441,13.5 7.86846441,13.4720178 7.8232233,13.4267767 C7.7779822,13.3815356 7.75,13.3190356 7.75,13.25 L7.75,8.25 L2.75,8.25 C2.68096441,8.25 2.61846441,8.2220178 2.5732233,8.1767767 C2.5279822,8.13153559 2.5,8.06903559 2.5,8 C2.5,7.93096441 2.5279822,7.86846441 2.5732233,7.8232233 C2.61846441,7.7779822 2.68096441,7.75 2.75,7.75 L7.75,7.75 L7.75,2.75 C7.75,2.68096441 7.7779822,2.61846441 7.8232233,2.5732233 Z" id="形状结合备份"></path>
            </g>
        </g>
    </g>
</svg>