<?xml version="1.0" encoding="UTF-8"?>
<svg width="26px" height="26px" viewBox="0 0 26 26" version="1.1" xmlns="http://www.w3.org/2000/svg" xmlns:xlink="http://www.w3.org/1999/xlink">
    <title>icon_guanbi_vip</title>
    <defs>
        <path d="M0,0 L26,0 L26,26 L0,26 L0,0 Z" id="path-1"></path>
    </defs>
    <g id="icon_guanbi_vip" stroke="none" fill="none" xlink:href="#path-1" fill-rule="evenodd">
        <rect id="bg" fill="#4C3623" x="0" y="0" width="26" height="26" rx="4"></rect>
        <path d="M8.85355339,8.14644661 L13,12.293 L17.1464466,8.14644661 C17.3417088,7.95118446 17.6582912,7.95118446 17.8535534,8.14644661 C18.0488155,8.34170876 18.0488155,8.65829124 17.8535534,8.85355339 L13.707,13 L17.8535534,17.1464466 C18.0488155,17.3417088 18.0488155,17.6582912 17.8535534,17.8535534 C17.6582912,18.0488155 17.3417088,18.0488155 17.1464466,17.8535534 L13,13.707 L8.85355339,17.8535534 C8.65829124,18.0488155 8.34170876,18.0488155 8.14644661,17.8535534 C7.95118446,17.6582912 7.95118446,17.3417088 8.14644661,17.1464466 L12.293,13 L8.14644661,8.85355339 C7.95118446,8.65829124 7.95118446,8.34170876 8.14644661,8.14644661 C8.34170876,7.95118446 8.65829124,7.95118446 8.85355339,8.14644661 Z" id="Icon" fill="#D4AB4A"></path>
    </g>
</svg>