<?xml version="1.0" encoding="UTF-8"?>
<svg width="232px" height="48px" viewBox="0 0 232 48" version="1.1" xmlns="http://www.w3.org/2000/svg" xmlns:xlink="http://www.w3.org/1999/xlink">
    <title>icon_vip_big</title>
    <defs>
        <path d="M0,0 L896,0 L896,900 L0,900 L0,0 Z" id="path-1"></path>
        <path d="M0,0 L232,0 L232,48 L0,48 L0,0 Z" id="path-2"></path>
        <linearGradient x1="50%" y1="-1.70782418e-14%" x2="50%" y2="100%" id="linearGradient-3">
            <stop stop-color="#FFD02B" offset="0%"></stop>
            <stop stop-color="#E5A01D" offset="100%"></stop>
        </linearGradient>
    </defs>
    <g id="页面-2" stroke="none" stroke-width="1" fill="none" fill-rule="evenodd">
        <g id="图标" transform="translate(-287, -28)" xlink:href="#path-1">
            <use fill="#FFFFFF" fill-rule="evenodd" xlink:href="#path-1"></use>
            <g id="icon_vip_big" transform="translate(287, 28)" xlink:href="#path-2">
                <rect id="矩形-15备份" stroke="#E3AA23" stroke-width="2" fill="#FFE0A4" fill-rule="nonzero" x="13" y="11" width="217" height="26" rx="13"></rect>
                <circle id="椭圆形-4备份" stroke="#E3AA23" stroke-width="2" fill="#FFE0A4" fill-rule="nonzero" cx="24" cy="24" r="22"></circle>
                <text id="成为会员、激活解锁全部权益备份" font-family="PingFangSC-Semibold, PingFang SC" font-size="12" font-weight="500" letter-spacing="0.3" fill="#886B26">
                    <tspan x="55" y="29">成为会员、激活解锁全部权益</tspan>
                </text>
                <path d="M13.0530612,30.244898 L10.1142857,34.9469388 C9.96734695,35.2408163 10.1142857,35.6081632 10.4816326,35.6081633 L14.4489796,35.8285714 C14.5959184,35.8285714 14.6693878,35.9020408 14.7428571,35.9755102 L17.1673469,39.2081633 C17.3877551,39.4285714 17.755102,39.4285714 17.9020408,39.2081633 L20.6938775,34.5795918 C20.8408163,34.3591837 20.7673469,34.1387755 20.5469388,33.9918367 L13.6408163,30.0979592 C13.4204081,30.0244898 13.2,30.0979592 13.0530612,30.244898 L13.0530612,30.244898 Z M34.9469388,30.1714286 L37.8857143,34.8734694 C38.032653,35.1673469 37.8857143,35.5346939 37.5183674,35.5346939 L33.5510204,35.755102 C33.4040816,35.755102 33.3306122,35.8285714 33.2571429,35.9020408 L30.8326531,39.1346939 C30.6122449,39.355102 30.244898,39.355102 30.0979592,39.1346939 L27.3061225,34.5061224 C27.1591837,34.2857143 27.2326531,34.0653061 27.4530612,33.9183673 L34.3591837,30.0244898 C34.5795919,29.877551 34.8,29.9510204 34.9469388,30.1714286 Z M34.3591837,14.155102 L25.0285714,8.86530612 C24.3673469,8.49795919 23.4857143,8.49795919 22.8244898,8.86530612 L13.5673469,14.0816327 C12.9061224,14.4489796 12.4653061,15.1836735 12.4653061,15.9183674 L12.4653061,26.4244898 C12.4653061,27.1591837 12.9061224,27.8938776 13.5673469,28.2612245 L22.8979592,33.5510204 C23.5591837,33.9183673 24.4408163,33.9183673 25.1020408,33.5510204 L34.3591837,28.4081633 C35.0204082,28.0408163 35.4612245,27.3061224 35.4612245,26.5714286 L35.4612245,16.0653061 C35.4612245,15.2571428 35.0204082,14.522449 34.3591837,14.155102 L34.3591837,14.155102 Z M29.9510204,18.6367347 L24.5142857,26.4979592 C24.367347,26.7183674 24.0734694,26.8653061 23.7795918,26.8653061 C23.4857142,26.8653061 23.1918367,26.7183674 23.044898,26.4979592 L17.8285714,18.6367347 C17.5346939,18.2693878 17.6816327,17.6816327 18.0489796,17.4612245 C18.4163265,17.2408163 19.0040816,17.3142857 19.2244898,17.6816327 L23.7061224,24.4408163 L28.4081633,17.6081633 C28.7020408,17.2408163 29.2163265,17.0938775 29.5836735,17.3877551 C30.1714286,17.755102 30.244898,18.2693878 29.9510204,18.6367347 L29.9510204,18.6367347 Z" id="形状" fill="url(#linearGradient-3)" fill-rule="nonzero"></path>
            </g>
        </g>
    </g>
</svg>