<?xml version="1.0" encoding="UTF-8"?>
<svg width="48px" height="48px" viewBox="0 0 48 48" version="1.1" xmlns="http://www.w3.org/2000/svg" xmlns:xlink="http://www.w3.org/1999/xlink">
    <title>icon_day_sussfull</title>
    <defs>
        <path d="M0,0 L896,0 L896,900 L0,900 L0,0 Z" id="path-1"></path>
        <path d="M0,0 L48,0 L48,48 L0,48 L0,0 Z" id="path-2"></path>
        <linearGradient x1="4.38980807%" y1="111.588542%" x2="62.1958947%" y2="37.4524239%" id="linearGradient-3">
            <stop stop-color="#1ED0FD" offset="0%"></stop>
            <stop stop-color="#0DA3FB" offset="100%"></stop>
        </linearGradient>
        <path d="M7,3 L27,3 L27,3 L27,43 L7,43 C5.8954305,43 5,42.1045695 5,41 L5,5 C5,3.8954305 5.8954305,3 7,3 Z M29,3 L36,3 C37.1045695,3 38,3.8954305 38,5 L38,41 C38,42.1045695 37.1045695,43 36,43 L29,43 L29,43 L29,3 Z" id="path-4"></path>
        <filter x="-7.6%" y="-6.2%" width="115.2%" height="112.5%" filterUnits="objectBoundingBox" id="filter-5">
            <feGaussianBlur stdDeviation="1.5" in="SourceAlpha" result="shadowBlurInner1"></feGaussianBlur>
            <feOffset dx="1" dy="2" in="shadowBlurInner1" result="shadowOffsetInner1"></feOffset>
            <feComposite in="shadowOffsetInner1" in2="SourceAlpha" operator="arithmetic" k2="-1" k3="1" result="shadowInnerInner1"></feComposite>
            <feColorMatrix values="0 0 0 0 0.218120144   0 0 0 0 0.691812813   0 0 0 0 0.962494339  0 0 0 1 0" type="matrix" in="shadowInnerInner1"></feColorMatrix>
        </filter>
        <linearGradient x1="72.6592345%" y1="-28.4211176%" x2="10.6288822%" y2="100%" id="linearGradient-6">
            <stop stop-color="#E5F1FF" stop-opacity="0.275404283" offset="0%"></stop>
            <stop stop-color="#CBD7E6" stop-opacity="0.300999781" offset="100%"></stop>
        </linearGradient>
        <circle id="path-7" cx="31" cy="32" r="13"></circle>
        <filter x="-19.2%" y="-15.4%" width="138.5%" height="138.5%" filterUnits="objectBoundingBox" id="filter-8">
            <feOffset dx="0" dy="1" in="SourceAlpha" result="shadowOffsetOuter1"></feOffset>
            <feGaussianBlur stdDeviation="1.5" in="shadowOffsetOuter1" result="shadowBlurOuter1"></feGaussianBlur>
            <feComposite in="shadowBlurOuter1" in2="SourceAlpha" operator="out" result="shadowBlurOuter1"></feComposite>
            <feColorMatrix values="0 0 0 0 0.0375738544   0 0 0 0 0.31837123   0 0 0 0 0.568755661  0 0 0 0.25 0" type="matrix" in="shadowBlurOuter1"></feColorMatrix>
        </filter>
        <filter x="-17.3%" y="-13.5%" width="134.6%" height="134.6%" filterUnits="objectBoundingBox" id="filter-9">
            <feGaussianBlur stdDeviation="1.5" in="SourceAlpha" result="shadowBlurInner1"></feGaussianBlur>
            <feOffset dx="0" dy="0" in="shadowBlurInner1" result="shadowOffsetInner1"></feOffset>
            <feComposite in="shadowOffsetInner1" in2="SourceAlpha" operator="arithmetic" k2="-1" k3="1" result="shadowInnerInner1"></feComposite>
            <feColorMatrix values="0 0 0 0 0.407843137   0 0 0 0 0.580392157   0 0 0 0 0.925490196  0 0 0 1 0" type="matrix" in="shadowInnerInner1"></feColorMatrix>
        </filter>
        <radialGradient cx="76.8554687%" cy="26.6764323%" fx="76.8554687%" fy="26.6764323%" r="117.328269%" gradientTransform="translate(0.7686, 0.2668), scale(1, 0.6276), rotate(95.2603), translate(-0.7686, -0.2668)" id="radialGradient-10">
            <stop stop-color="#FFFFFF" offset="0%"></stop>
            <stop stop-color="#FFFFFF" offset="0%"></stop>
            <stop stop-color="#FFFFFF" offset="100%"></stop>
        </radialGradient>
        <path d="M34.8964466,24.3106602 C35.4487314,24.3106602 35.8964466,24.7583754 35.8964466,25.3106602 L35.8964466,36.3106602 C35.8964466,36.7956704 35.5511617,37.2000351 35.092995,37.2913508 C34.972301,37.3427076 34.8393657,37.3713203 34.6997475,37.3713203 L28.6997475,37.3713203 C28.1474627,37.3713203 27.6997475,36.9236051 27.6997475,36.3713203 C27.6997475,35.8190356 28.1474627,35.3713203 28.6997475,35.3713203 L33.8957475,35.3706602 L33.8964466,25.3106602 C33.8964466,24.7583754 34.3441619,24.3106602 34.8964466,24.3106602 Z" id="path-11"></path>
        <filter x="-91.5%" y="-57.4%" width="283.0%" height="214.8%" filterUnits="objectBoundingBox" id="filter-12">
            <feOffset dx="0" dy="0" in="SourceAlpha" result="shadowOffsetOuter1"></feOffset>
            <feGaussianBlur stdDeviation="2.5" in="shadowOffsetOuter1" result="shadowBlurOuter1"></feGaussianBlur>
            <feColorMatrix values="0 0 0 0 0.859176857   0 0 0 0 0.859176857   0 0 0 0 0.859176857  0 0 0 0.553567526 0" type="matrix" in="shadowBlurOuter1"></feColorMatrix>
        </filter>
        <filter x="-79.3%" y="-49.8%" width="258.6%" height="199.5%" filterUnits="objectBoundingBox" id="filter-13">
            <feGaussianBlur stdDeviation="1" in="SourceAlpha" result="shadowBlurInner1"></feGaussianBlur>
            <feOffset dx="0" dy="1" in="shadowBlurInner1" result="shadowOffsetInner1"></feOffset>
            <feComposite in="shadowOffsetInner1" in2="SourceAlpha" operator="arithmetic" k2="-1" k3="1" result="shadowInnerInner1"></feComposite>
            <feColorMatrix values="0 0 0 0 0.497395833   0 0 0 0 0.497395833   0 0 0 0 0.497395833  0 0 0 0.25 0" type="matrix" in="shadowInnerInner1"></feColorMatrix>
        </filter>
        <path d="M34.8964466,24.3106602 C35.4487314,24.3106602 35.8964466,24.7583754 35.8964466,25.3106602 L35.8964466,36.3106602 C35.8964466,36.7956704 35.5511617,37.2000351 35.092995,37.2913508 C34.972301,37.3427076 34.8393657,37.3713203 34.6997475,37.3713203 L28.6997475,37.3713203 C28.1474627,37.3713203 27.6997475,36.9236051 27.6997475,36.3713203 C27.6997475,35.8190356 28.1474627,35.3713203 28.6997475,35.3713203 L33.8957475,35.3706602 L33.8964466,25.3106602 C33.8964466,24.7583754 34.3441619,24.3106602 34.8964466,24.3106602 Z" id="path-14"></path>
        <filter x="-54.9%" y="-34.5%" width="209.8%" height="168.9%" filterUnits="objectBoundingBox" id="filter-15">
            <feOffset dx="0" dy="0" in="SourceAlpha" result="shadowOffsetOuter1"></feOffset>
            <feGaussianBlur stdDeviation="1.5" in="shadowOffsetOuter1" result="shadowBlurOuter1"></feGaussianBlur>
            <feColorMatrix values="0 0 0 0 0.701681386   0 0 0 0 0.701681386   0 0 0 0 0.701681386  0 0 0 0.553567526 0" type="matrix" in="shadowBlurOuter1"></feColorMatrix>
        </filter>
        <filter x="-54.9%" y="-34.5%" width="209.8%" height="168.9%" filterUnits="objectBoundingBox" id="filter-16">
            <feGaussianBlur stdDeviation="1" in="SourceAlpha" result="shadowBlurInner1"></feGaussianBlur>
            <feOffset dx="0" dy="1" in="shadowBlurInner1" result="shadowOffsetInner1"></feOffset>
            <feComposite in="shadowOffsetInner1" in2="SourceAlpha" operator="arithmetic" k2="-1" k3="1" result="shadowInnerInner1"></feComposite>
            <feColorMatrix values="0 0 0 0 0.497395833   0 0 0 0 0.497395833   0 0 0 0 0.497395833  0 0 0 0.25 0" type="matrix" in="shadowInnerInner1"></feColorMatrix>
        </filter>
    </defs>
    <g id="页面-2" stroke="none" stroke-width="1" fill="none" fill-rule="evenodd">
        <g id="图标" transform="translate(-240, -142)" xlink:href="#path-1">
            <use fill="#FFFFFF" fill-rule="evenodd" xlink:href="#path-1"></use>
            <g id="icon_day_sussfull" transform="translate(240, 142)" xlink:href="#path-2">
                <g id="形状结合">
                    <use fill="url(#linearGradient-3)" fill-rule="evenodd" xlink:href="#path-4"></use>
                    <use fill="black" fill-opacity="1" filter="url(#filter-5)" xlink:href="#path-4"></use>
                </g>
                <g id="椭圆形-4">
                    <use fill="black" fill-opacity="1" filter="url(#filter-8)" xlink:href="#path-7"></use>
                    <use fill-opacity="0.4" fill="#B6D4FA" fill-rule="evenodd" xlink:href="#path-7"></use>
                    <use fill="black" fill-opacity="1" filter="url(#filter-9)" xlink:href="#path-7"></use>
                    <circle stroke="url(#linearGradient-6)" stroke-width="1" stroke-linejoin="square" cx="31" cy="32" r="12.5"></circle>
                </g>
                <g id="形状结合" transform="translate(31.7981, 30.841) rotate(45) translate(-31.7981, -30.841)">
                    <use fill="black" fill-opacity="1" filter="url(#filter-12)" xlink:href="#path-11"></use>
                    <use fill="url(#radialGradient-10)" fill-rule="evenodd" xlink:href="#path-11"></use>
                    <use fill="black" fill-opacity="1" filter="url(#filter-13)" xlink:href="#path-11"></use>
                </g>
                <g id="形状结合" opacity="0.600000024" transform="translate(31.7981, 30.841) rotate(45) translate(-31.7981, -30.841)">
                    <use fill="black" fill-opacity="1" filter="url(#filter-15)" xlink:href="#path-14"></use>
                    <use fill="url(#radialGradient-10)" fill-rule="evenodd" xlink:href="#path-14"></use>
                    <use fill="black" fill-opacity="1" filter="url(#filter-16)" xlink:href="#path-14"></use>
                </g>
                <path d="M16,10.5 C16,8.56700338 14.4329966,7 12.5,7 C10.5670034,7 9,8.56700338 9,10.5" id="路径" stroke="#FFFFFF" stroke-width="1" stroke-linecap="round"></path>
                <path d="M12.5,16 C14.4329966,16 16,14.4329966 16,12.5" id="路径" stroke="#FFFFFF" stroke-width="1" stroke-linecap="round"></path>
                <path d="M9.5,12 L16,12 L16,12 L16,13 L9.5,13 C9.22385763,13 9,12.7761424 9,12.5 C9,12.2238576 9.22385763,12 9.5,12 Z" id="矩形-8" fill="#FFFFFF" fill-rule="evenodd"></path>
                <circle id="椭圆形" fill="#FFFFFF" fill-rule="evenodd" cx="12.5" cy="9.5" r="1"></circle>
            </g>
        </g>
    </g>
</svg>